<?xml version="1.0" standalone="no"?>
<!DOCTYPE svg PUBLIC "-//W3C//DTD SVG 20010904//EN"
 "http://www.w3.org/TR/2001/REC-SVG-20010904/DTD/svg10.dtd">
<svg version="1.0" xmlns="http://www.w3.org/2000/svg"
 width="1024.000000pt" height="1024.000000pt" viewBox="0 0 1024.000000 1024.000000"
 preserveAspectRatio="xMidYMid meet">

<g transform="translate(0.000000,1024.000000) scale(0.100000,-0.100000)"
fill="#000000" stroke="none">
<path d="M0 5120 l0 -5120 5120 0 5120 0 0 5120 0 5120 -5120 0 -5120 0 0
-5120z m5504 4300 c6 -846 5 -758 16 -740 8 12 10 12 16 -3 3 -9 10 -17 14
-17 14 0 21 32 9 46 -9 11 -9 14 0 14 7 0 9 5 6 10 -3 6 -1 10 5 10 7 0 10 -6
7 -14 -3 -8 2 -20 11 -28 16 -12 16 -11 2 6 -13 17 -13 19 0 14 8 -3 23 1 33
10 19 17 24 3 5 -16 -8 -8 -8 -15 2 -27 10 -12 10 -18 -1 -32 -13 -16 -12 -17
4 -4 9 7 17 21 17 30 1 13 3 13 15 -3 12 -16 15 -17 15 -4 0 9 4 18 9 20 4 2
12 284 15 628 4 344 9 626 11 628 1 2 5 -275 8 -615 3 -340 8 -629 13 -642 7
-22 8 -23 20 -6 11 14 16 16 28 6 8 -7 12 -20 9 -29 -4 -10 5 -5 20 11 15 15
27 24 27 20 0 -5 -5 -14 -11 -20 -8 -8 -7 -16 2 -31 12 -20 13 -20 32 2 13 15
17 16 14 5 -4 -12 1 -16 20 -16 16 0 27 6 30 18 3 10 11 15 19 12 12 -4 10 -9
-6 -23 l-20 -17 21 -19 c17 -16 19 -16 13 -1 -3 9 -2 17 4 17 6 0 12 -6 15
-12 2 -7 7 -11 10 -8 4 3 7 303 9 665 1 363 5 707 8 765 4 59 8 -90 9 -340 2
-245 4 -476 6 -515 1 -38 3 -195 5 -347 1 -153 6 -278 10 -278 12 0 23 38 15
50 -3 5 1 10 9 10 16 0 19 -9 17 -40 0 -10 1 -11 5 -2 3 6 10 10 15 6 5 -3 5
-14 -2 -27 -9 -20 -9 -20 4 -4 20 24 30 21 22 -5 l-6 -23 20 23 c12 13 25 20
35 16 9 -3 16 -1 16 5 0 6 5 11 10 11 6 0 5 -8 -2 -20 -7 -11 -17 -19 -23 -17
-11 4 -35 -17 -35 -29 0 -5 5 -3 11 3 6 6 18 9 25 6 8 -3 14 -1 14 5 0 5 7 13
16 16 11 4 14 1 10 -12 -5 -14 1 -22 20 -31 15 -6 29 -9 32 -6 3 3 0 5 -7 5
-7 0 -9 5 -5 11 4 7 16 1 33 -15 25 -24 41 -26 41 -4 0 5 -5 6 -12 2 -7 -4 -8
-3 -4 4 4 6 14 8 22 5 11 -4 12 -9 5 -16 -6 -6 -11 -18 -11 -26 1 -13 2 -13
11 2 5 9 15 17 21 17 7 0 6 -6 -2 -15 -7 -9 -9 -19 -5 -23 4 -4 10 -1 12 6 3
6 8 12 13 12 5 0 10 -6 13 -12 2 -7 2 -3 0 10 -2 12 1 22 6 22 13 0 19 -21 16
-53 -2 -15 1 -25 6 -21 5 3 9 14 9 25 0 10 5 19 11 19 7 0 9 -11 6 -26 -3 -18
-1 -22 6 -15 6 6 11 18 12 28 3 29 16 53 26 47 5 -3 9 -10 9 -15 0 -6 -4 -7
-10 -4 -5 3 -10 -1 -10 -9 0 -21 19 -30 26 -12 3 9 10 13 15 10 5 -3 0 -17
-11 -31 -22 -28 -25 -43 -10 -43 6 0 10 5 10 11 0 6 7 17 15 25 13 14 17 14
30 0 12 -11 13 -21 6 -34 -7 -14 -5 -21 10 -30 16 -10 19 -9 19 3 0 8 -5 15
-10 15 -6 0 -5 9 2 23 7 12 14 24 15 26 1 2 13 -10 27 -25 22 -26 23 -31 11
-50 -7 -11 -10 -25 -7 -31 12 -17 44 -24 58 -12 11 9 14 7 14 -12 0 -20 2 -21
11 -9 8 11 12 12 16 2 3 -8 11 -4 25 13 11 14 23 23 26 20 4 -3 1 -10 -6 -14
-14 -8 -9 -14 73 -85 22 -19 37 -38 33 -41 -4 -4 -14 -1 -21 6 -8 8 -25 22
-38 33 -13 10 -34 27 -45 38 -22 19 -22 19 -32 -12 -7 -18 -7 -28 -2 -25 6 4
10 13 10 21 0 20 9 18 36 -8 56 -55 76 -69 90 -64 7 3 14 1 14 -3 0 -5 -6 -12
-12 -14 -8 -4 -9 -6 -2 -6 6 -1 17 6 24 14 10 11 9 18 -4 30 -9 9 -16 22 -16
28 0 7 14 -3 30 -22 22 -25 33 -31 43 -23 8 7 18 8 27 1 12 -8 11 -9 -4 -7
-10 2 -21 -3 -24 -11 -3 -8 0 -11 7 -7 6 4 11 3 11 -2 0 -11 50 -35 58 -27 3
2 11 0 19 -6 9 -8 17 -8 26 -1 8 7 16 6 24 -3 9 -10 1 -12 -41 -11 -29 1 -64
-2 -77 -5 -16 -5 -5 -8 36 -9 103 -3 702 -11 873 -11 126 0 162 -3 162 -13 0
-14 -88 -16 -1177 -21 l-522 -2 -278 -278 c-153 -153 -332 -327 -398 -388 -66
-60 -166 -157 -223 -216 -92 -94 -104 -104 -112 -86 -5 11 -9 169 -9 351 l-1
330 145 143 c108 107 145 149 145 168 0 13 6 36 14 51 54 103 196 110 262 13
43 -63 28 -129 -42 -191 -34 -29 -42 -32 -86 -28 -41 4 -56 12 -92 47 l-43 42
-25 -38 c-15 -21 -70 -83 -124 -138 l-97 -100 2 -259 c1 -149 7 -269 13 -285
l10 -26 25 31 25 30 -1 224 -2 224 116 113 c63 62 120 113 125 113 21 0 23
-33 5 -66 -17 -31 -77 -92 -148 -151 -26 -22 -27 -26 -27 -131 0 -60 -3 -145
-6 -188 l-6 -79 51 50 51 49 0 127 c0 98 3 129 14 138 24 20 36 -18 36 -113 0
-50 4 -86 10 -86 5 0 29 19 52 43 106 106 403 412 496 510 l102 107 42 -10
c54 -12 255 -13 262 -1 10 16 -140 109 -265 164 -329 144 -509 197 -779 231
-293 37 -362 39 -575 21 -215 -18 -269 -25 -428 -60 -235 -51 -569 -165 -726
-248 -77 -40 -171 -100 -171 -109 0 -11 219 -10 257 1 38 11 -15 58 448 -401
154 -152 312 -309 350 -350 l70 -73 3 170 c1 94 0 181 -3 193 -3 13 -46 65
-95 116 -57 59 -90 101 -90 114 0 42 35 21 139 -82 l103 -103 4 -224 c2 -123
3 -229 4 -236 0 -15 49 -73 61 -73 5 0 9 123 9 293 l0 292 -86 85 c-47 47 -99
104 -116 128 -17 23 -35 42 -38 42 -4 0 -24 -13 -45 -30 -30 -24 -47 -30 -87
-30 -82 0 -138 56 -138 137 0 73 52 126 136 138 75 11 154 -58 154 -134 0 -34
11 -48 140 -176 l140 -139 0 -354 0 -354 -57 55 c-32 30 -112 106 -178 168
-162 154 -466 451 -645 632 l-147 148 -816 2 -816 3 -3 -111 c-2 -75 -7 -110
-15 -110 -57 0 -9 -67 188 -264 104 -104 189 -194 189 -199 0 -28 -21 -14 -85
55 -39 41 -106 106 -150 143 -44 38 -105 93 -135 123 l-54 55 -1 181 0 181 60
-7 c33 -5 235 -7 449 -5 335 2 392 4 407 18 9 8 19 12 21 7 3 -4 3 -2 2 5 -2
6 4 12 12 12 8 0 12 5 9 10 -4 6 -3 10 2 9 4 -1 15 -1 23 0 12 1 11 5 -4 16
-19 15 -19 15 3 15 12 0 19 4 16 10 -9 14 8 13 23 -2 6 -6 15 -8 19 -4 4 4 1
11 -7 16 -8 5 -11 12 -7 16 4 4 15 -3 26 -15 20 -23 37 -24 60 -3 12 12 12 15
0 23 -12 8 -12 10 1 19 13 9 13 11 0 21 -12 9 -11 9 5 3 11 -4 32 -7 48 -6 24
1 26 -1 17 -19 -6 -11 -22 -25 -35 -31 -13 -6 -26 -17 -29 -24 -6 -16 10 -19
19 -3 5 7 14 4 26 -7 10 -9 19 -12 19 -6 0 6 -6 12 -12 14 -8 3 -2 14 16 31
15 14 25 31 21 36 -11 18 15 12 46 -10 38 -27 37 -14 -2 23 -17 16 -28 32 -25
35 2 3 17 -7 32 -22 18 -18 29 -24 32 -16 2 7 -4 19 -14 26 -27 20 1 19 32 -1
21 -15 24 -15 18 -1 -3 8 -12 18 -19 21 -8 3 -19 15 -25 26 -12 22 -11 22 19
-1 30 -22 31 -22 45 -3 10 13 11 23 4 31 -7 9 -7 13 1 13 6 0 11 -4 11 -10 0
-18 17 -10 30 15 7 14 18 25 23 25 5 0 4 -7 -3 -15 -7 -8 -9 -15 -5 -15 9 0
34 31 35 44 0 4 -8 5 -17 1 -13 -4 -15 -3 -7 5 6 6 18 8 27 4 13 -4 14 -10 7
-24 -7 -14 -5 -19 9 -23 13 -3 26 5 40 24 19 25 51 43 37 21 -3 -5 5 -8 17 -7
13 1 24 10 26 20 7 37 33 66 52 60 12 -4 19 -1 19 7 0 10 3 9 10 -2 9 -13 11
-13 19 0 6 8 13 11 18 7 4 -5 1 -12 -7 -17 -8 -5 -11 -13 -6 -17 5 -4 11 -2
13 5 3 6 10 9 15 6 7 -5 8 -2 4 5 -5 8 -3 11 5 10 20 -4 59 11 59 22 0 5 5 9
11 9 6 0 8 -9 4 -22 -5 -20 -4 -21 5 -5 6 9 8 22 4 28 -4 7 -1 10 7 7 18 -6
49 29 43 47 -4 10 1 12 15 8 17 -4 19 -8 10 -19 -7 -8 -9 -17 -5 -21 3 -3 6
-1 6 6 0 7 5 9 10 6 14 -9 52 4 45 16 -9 13 9 11 24 -3 11 -11 12 -9 6 9 -4
14 -1 31 8 43 13 19 14 19 42 -10 27 -28 30 -29 47 -13 19 17 24 33 10 33 -5
0 -14 -10 -20 -22 -8 -17 -11 -19 -11 -6 -1 9 -7 18 -13 21 -10 4 -10 7 0 18
10 11 12 10 12 -5 0 -10 5 -14 11 -11 6 4 8 13 5 21 -3 8 0 11 10 7 7 -3 14 0
14 6 0 7 9 6 24 -4 16 -11 26 -13 31 -6 3 6 1 11 -6 11 -7 0 -10 2 -7 5 3 3
17 0 32 -6 20 -9 23 -15 15 -26 -6 -7 -8 -13 -3 -13 5 0 18 12 31 26 16 19 28
24 42 19 12 -3 21 -11 21 -16 0 -6 5 -7 10 -4 6 4 8 11 5 16 -3 5 1 6 9 3 9
-3 16 -1 16 5 0 6 -4 11 -9 11 -5 0 -12 8 -15 17 -6 14 -4 14 16 -2 13 -11 25
-21 27 -22 2 -1 -2 -9 -9 -18 -16 -19 -3 -20 16 0 14 13 14 17 0 31 -9 8 -16
20 -16 25 0 9 9 3 44 -28 8 -7 17 -9 21 -5 4 4 17 7 28 7 18 0 22 5 20 28 -1
15 2 27 8 27 9 0 13 -22 10 -49 -2 -7 2 -10 8 -6 6 3 11 0 11 -7 0 -9 3 -9 10
2 9 13 11 13 20 0 11 -17 13 -10 4 14 -5 13 -9 14 -20 5 -17 -14 -18 2 -1 20
10 11 9 13 -5 8 -12 -4 -15 -2 -11 9 7 19 8 18 39 -13 16 -18 24 -22 21 -11
-4 13 -2 15 10 11 11 -4 14 -2 9 5 -4 7 -3 12 3 12 5 0 12 8 15 18 4 14 5 14
4 -3 -1 -66 14 -56 18 12 2 25 8 50 14 55 5 4 8 5 5 1 -3 -3 2 -15 12 -25 9
-11 11 -18 5 -18 -22 0 -12 -25 18 -45 16 -11 31 -27 34 -35 3 -12 4 -11 5 2
0 10 -9 26 -21 38 -12 11 -19 22 -17 25 3 2 17 -7 33 -21 15 -14 30 -23 33
-20 4 3 -4 14 -16 25 -13 12 -18 22 -11 26 5 3 10 2 10 -3 0 -5 12 -14 26 -20
15 -7 23 -17 19 -25 -4 -6 0 -4 8 6 13 15 19 17 37 7 20 -11 21 -10 16 12 l-7
23 17 -22 c15 -21 44 -32 44 -17 0 3 -18 23 -40 44 -36 35 -37 38 -16 36 13 0
22 -4 20 -8 -3 -4 9 -22 26 -39 19 -21 27 -36 21 -43 -6 -7 -3 -16 6 -25 13
-12 14 -11 8 9 -5 17 -4 21 6 18 8 -3 21 -1 31 3 11 6 18 4 22 -6 3 -8 11 -15
17 -15 8 0 9 4 0 13 -12 15 -5 27 16 27 7 0 13 -6 13 -14 0 -8 7 -17 16 -20
13 -5 14 -4 6 7 -7 8 -9 17 -5 20 3 4 1 7 -5 7 -7 0 -12 5 -12 10 0 18 22 10
27 -10 3 -10 18 -25 34 -32 16 -7 29 -16 29 -20 0 -5 5 -8 10 -8 18 0 10 22
-10 27 -20 5 -28 23 -10 23 6 0 10 6 10 14 0 7 7 19 15 26 14 11 14 10 5 -14
-8 -23 -7 -32 11 -54 l21 -27 -7 25 -8 25 22 -19 c22 -20 22 -20 15 0 -7 17
-6 18 10 5 9 -8 15 -20 12 -28 -3 -8 -1 -11 4 -8 14 9 12 21 -4 37 -11 12 -11
17 1 34 15 18 15 18 8 -3 -3 -13 -2 -23 4 -23 5 0 11 -12 13 -27 7 -54 18 468
20 897 1 389 8 639 15 570 1 -14 5 -347 7 -740z m213 548 c-3 -8 -6 -5 -6 6
-1 11 2 17 5 13 3 -3 4 -12 1 -19z m-4125 -511 c87 -86 158 -162 158 -168 0
-6 7 -9 14 -6 11 4 13 1 9 -10 -4 -10 -2 -14 5 -9 6 3 14 1 19 -7 4 -7 21 -20
36 -30 15 -10 32 -28 38 -40 6 -12 23 -30 40 -39 16 -10 28 -21 27 -25 -4 -10
63 -78 77 -78 6 -1 9 -6 8 -12 -1 -6 27 -40 62 -76 36 -35 65 -68 65 -73 0 -4
-72 64 -160 151 -87 87 -156 163 -153 168 3 6 2 7 -4 4 -6 -4 -33 17 -60 46
-28 29 -180 180 -337 336 -157 155 -286 285 -286 288 0 8 265 -244 442 -420z
m5215 161 c64 -62 64 -140 2 -193 -40 -33 -132 -36 -172 -5 -31 25 -62 100
-53 133 25 100 150 136 223 65z m1923 -278 c102 -100 230 -223 285 -273 54
-51 115 -108 135 -127 167 -162 199 -195 204 -212 4 -17 -2 -14 -31 13 -117
109 -247 233 -392 374 -228 222 -278 271 -355 343 -64 62 -85 93 -48 73 9 -5
100 -91 202 -191z m-1600 162 c0 -9 -236 -9 -246 1 -4 4 50 7 119 7 70 0 127
-3 127 -8z m128 1 c-10 -2 -26 -2 -35 0 -10 3 -2 5 17 5 19 0 27 -2 18 -5z
m175 0 c-29 -2 -77 -2 -105 0 -29 2 -6 3 52 3 58 0 81 -1 53 -3z m150 -10 c-7
-2 -21 -2 -30 0 -10 3 -4 5 12 5 17 0 24 -2 18 -5z m320 0 c-57 -2 -149 -2
-205 0 -57 1 -11 3 102 3 113 0 159 -2 103 -3z m460 -290 c178 -168 362 -349
592 -579 274 -276 308 -311 303 -324 -2 -5 -142 127 -313 292 -635 618 -687
668 -698 668 -13 0 13 20 26 20 4 0 44 -35 90 -77z m-190 60 c-7 -2 -21 -2
-30 0 -10 3 -4 5 12 5 17 0 24 -2 18 -5z m-116 -9 c-3 -3 -12 -4 -19 -1 -8 3
-5 6 6 6 11 1 17 -2 13 -5z m-6325 -277 c5 -6 7 -25 6 -42 -3 -28 -6 -30 -43
-30 -38 0 -40 2 -43 33 -5 53 3 65 40 58 18 -3 36 -12 40 -19z m7269 -114 c13
-16 12 -17 -3 -4 -10 7 -18 15 -18 17 0 8 8 3 21 -13z m-4058 -78 c-3 -9 -8
-14 -10 -11 -3 3 -2 9 2 15 9 16 15 13 8 -4z m177 5 c0 -5 -2 -10 -4 -10 -3 0
-8 5 -11 10 -3 6 -1 10 4 10 6 0 11 -4 11 -10z m101 -7 c13 -16 12 -17 -3 -4
-10 7 -18 15 -18 17 0 8 8 3 21 -13z m-2950 -10 c13 -16 12 -17 -3 -4 -10 7
-18 15 -18 17 0 8 8 3 21 -13z m6819 7 c0 -5 -2 -10 -4 -10 -3 0 -8 5 -11 10
-3 6 -1 10 4 10 6 0 11 -4 11 -10z m-4045 -11 c11 -17 -1 -21 -15 -4 -8 9 -8
15 -2 15 6 0 14 -5 17 -11z m135 -30 c0 -14 -11 -11 -32 8 -27 24 -22 36 7 17
14 -9 25 -20 25 -25z m36 3 c-4 -3 -11 0 -16 8 -15 24 -11 33 6 15 9 -9 13
-19 10 -23z m87 26 c4 -10 8 -9 16 2 5 8 13 11 18 7 4 -5 3 -11 -3 -15 -6 -4
-14 -16 -19 -27 -8 -19 -9 -19 -12 3 -3 12 -9 22 -14 22 -5 0 -9 5 -9 10 0 14
17 12 23 -2z m258 -11 c-10 -9 -11 -8 -5 6 3 10 9 15 12 12 3 -3 0 -11 -7 -18z
m-551 3 c8 -5 11 -12 8 -16 -4 -3 -14 1 -23 10 -18 17 -9 21 15 6z m378 -15
c-10 -23 -28 -34 -28 -18 0 7 31 43 36 43 2 0 -2 -11 -8 -25z m26 -9 c-6 -15
-24 -23 -24 -11 0 8 24 34 28 30 1 -1 0 -10 -4 -19z m271 -5 c0 -16 -4 -33 -9
-38 -5 -5 -7 -1 -3 10 8 22 -9 22 -22 0 -5 -10 -12 -15 -16 -11 -4 3 3 16 14
27 12 12 21 26 21 31 0 6 3 10 8 10 4 0 7 -13 7 -29z m-985 -43 c0 -5 -4 -8
-10 -8 -5 0 -10 7 -10 15 0 8 -4 15 -10 15 -5 0 -10 -7 -10 -15 0 -12 -3 -13
-19 -3 -11 7 -17 16 -14 21 3 5 9 4 13 -3 5 -8 10 -9 14 -2 3 6 2 13 -4 17 -5
3 -10 11 -10 16 0 6 14 -2 30 -18 17 -15 30 -31 30 -35z m844 30 c-4 -6 0 -14
7 -19 7 -4 10 -11 6 -15 -10 -10 -36 27 -30 43 3 7 9 10 14 7 5 -3 6 -10 3
-16z m66 12 c0 -5 -2 -10 -4 -10 -3 0 -8 5 -11 10 -3 6 -1 10 4 10 6 0 11 -4
11 -10z m3544 -19 c-2 -3 -12 3 -22 13 -16 17 -16 18 5 5 12 -7 20 -15 17 -18z
m-3384 9 c0 -5 -5 -10 -11 -10 -5 0 -7 5 -4 10 3 6 8 10 11 10 2 0 4 -4 4 -10z
m25 1 c-3 -5 -1 -12 5 -16 5 -3 10 -11 10 -16 0 -6 -7 -3 -16 5 -13 14 -12 36
2 36 3 0 3 -4 -1 -9z m-3430 -31 c3 -5 1 -10 -4 -10 -6 0 -11 5 -11 10 0 6 2
10 4 10 3 0 8 -4 11 -10z m3526 -13 c-10 -9 -11 -8 -5 6 3 10 9 15 12 12 3 -3
0 -11 -7 -18z m4034 -1 c17 -1 -14 -4 -67 -4 -54 -1 -98 1 -98 6 0 6 94 6 165
-2z m-3799 -73 c-4 -9 -1 -20 6 -24 7 -4 9 -11 5 -15 -4 -4 -15 -1 -23 8 -14
14 -14 18 -3 32 18 20 23 20 15 -1z m-1951 -21 c-3 -3 -11 0 -18 7 -9 10 -8
11 6 5 10 -3 15 -9 12 -12z m45 8 c0 -5 -5 -10 -11 -10 -5 0 -7 5 -4 10 3 6 8
10 11 10 2 0 4 -4 4 -10z m1945 -1 c11 -17 -1 -21 -15 -4 -8 9 -8 15 -2 15 6
0 14 -5 17 -11z m-1965 -29 c0 -5 -5 -10 -11 -10 -5 0 -7 5 -4 10 3 6 8 10 11
10 2 0 4 -4 4 -10z m2114 -17 c23 -28 17 -30 -12 -4 -12 10 -19 21 -15 25 3 3
7 5 7 4 1 -2 10 -13 20 -25z m-2202 -5 c-7 -7 -12 -8 -12 -2 0 14 12 26 19 19
2 -3 -1 -11 -7 -17z m-32 -9 c0 -4 -7 -6 -15 -3 -8 4 -15 10 -15 15 0 4 7 6
15 3 8 -4 15 -10 15 -15z m-2419 -6 c13 -16 12 -17 -3 -4 -17 13 -22 21 -14
21 2 0 10 -8 17 -17z m2378 -24 c-13 -9 -28 -15 -34 -11 -6 4 -2 8 8 10 9 2
17 8 17 14 0 6 -11 8 -26 4 -22 -6 -23 -5 -12 7 10 11 20 12 42 4 l29 -10 -24
-18z m2325 17 c-3 -9 -10 -13 -15 -10 -5 3 -3 11 4 19 15 16 19 13 11 -9z
m-74 4 c8 -5 11 -12 8 -16 -4 -3 -14 1 -23 10 -18 17 -9 21 15 6z m-50 -4 c0
-3 -4 -8 -10 -11 -5 -3 -10 -1 -10 4 0 6 5 11 10 11 6 0 10 -2 10 -4z m140
-26 c0 -5 -5 -10 -11 -10 -5 0 -7 5 -4 10 3 6 8 10 11 10 2 0 4 -4 4 -10z m35
0 c3 -5 1 -10 -4 -10 -6 0 -11 5 -11 10 0 6 2 10 4 10 3 0 8 -4 11 -10z m38
-7 c-7 -2 -13 -11 -13 -19 0 -8 -4 -14 -10 -14 -5 0 -10 4 -10 8 0 12 22 32
35 31 5 0 4 -3 -2 -6z m-2673 -77 c0 -3 -4 -8 -10 -11 -5 -3 -10 -1 -10 4 0 6
5 11 10 11 6 0 10 -2 10 -4z m2880 -10 c0 -3 -4 -8 -10 -11 -5 -3 -10 -1 -10
4 0 6 5 11 10 11 6 0 10 -2 10 -4z m6 -63 c13 -17 13 -17 14 2 0 15 3 16 12 7
9 -9 8 -15 -8 -27 -22 -16 -38 -20 -29 -6 3 5 1 12 -5 16 -11 7 -14 25 -4 25
4 0 13 -8 20 -17z m-3046 -13 c0 -5 -4 -10 -10 -10 -5 0 -10 5 -10 10 0 6 5
10 10 10 6 0 10 -4 10 -10z m3110 -9 c0 -6 -4 -13 -10 -16 -5 -3 -10 1 -10 9
0 9 5 16 10 16 6 0 10 -4 10 -9z m-2271 -5 c-5 -5 -182 -66 -192 -66 -5 0 -6
4 -3 9 3 5 30 15 58 22 29 6 67 18 83 25 28 13 63 19 54 10z m-1049 -26 c0 -5
-2 -10 -4 -10 -3 0 -8 5 -11 10 -3 6 -1 10 4 10 6 0 11 -4 11 -10z m6270 0
c-58 -4 -177 -7 -265 -7 l-160 1 130 6 c72 3 191 6 265 6 l135 1 -105 -7z
m-6205 -10 c3 -5 1 -10 -4 -10 -6 0 -11 5 -11 10 0 6 2 10 4 10 3 0 8 -4 11
-10z m1787 -15 c14 -11 36 -35 48 -53 44 -63 6 -168 -77 -210 l-35 -19 2 -209
c2 -115 4 -340 4 -501 1 -160 4 -295 8 -299 4 -4 26 10 49 30 74 67 55 27 -26
-54 l-79 -79 -74 75 c-40 42 -71 78 -68 81 3 4 22 -11 41 -32 24 -25 40 -34
46 -28 6 6 12 201 14 513 l4 504 -41 35 c-93 80 -88 181 12 249 29 20 45 23
90 20 35 -3 66 -11 82 -23z m1548 15 c0 -5 -2 -10 -4 -10 -3 0 -8 5 -11 10 -3
6 -1 10 4 10 6 0 11 -4 11 -10z m-3370 -10 c0 -5 -5 -10 -11 -10 -5 0 -7 5 -4
10 3 6 8 10 11 10 2 0 4 -4 4 -10z m-80 -20 c0 -5 -5 -10 -11 -10 -5 0 -7 5
-4 10 3 6 8 10 11 10 2 0 4 -4 4 -10z m-75 -20 c3 -5 1 -10 -4 -10 -6 0 -11 5
-11 10 0 6 2 10 4 10 3 0 8 -4 11 -10z m85 -33 c0 -9 -36 9 -44 22 -4 5 5 4
19 -2 14 -7 25 -16 25 -20z m-240 -37 c0 -5 -5 -10 -11 -10 -5 0 -7 5 -4 10 3
6 8 10 11 10 2 0 4 -4 4 -10z m62 -10 c-24 -22 -32 -25 -32 -10 0 6 10 15 23
20 32 13 33 12 9 -10z m3838 10 c8 -5 11 -10 5 -10 -5 0 -17 5 -25 10 -8 5
-10 10 -5 10 6 0 17 -5 25 -10z m-3836 -45 c-14 -14 -28 -25 -31 -25 -4 0 4
11 17 25 13 14 27 25 31 25 5 0 -3 -11 -17 -25z m-64 -10 c7 -9 8 -15 2 -15
-5 0 -12 7 -16 15 -3 8 -4 15 -2 15 2 0 9 -7 16 -15z m4895 -241 l0 -166 -90
-80 c-49 -44 -128 -117 -174 -162 -46 -44 -75 -67 -63 -51 19 29 166 176 262
263 l45 40 1 134 c1 109 4 158 13 186 5 13 6 -22 6 -164z m-3488 -537 c332
-331 608 -604 614 -606 6 -2 286 272 622 608 l612 611 752 -2 753 -3 -6 -85
c-5 -80 -8 -86 -37 -110 -34 -27 -121 -115 -760 -764 -232 -236 -565 -573
-740 -749 l-317 -319 124 -132 c68 -72 482 -491 920 -931 l796 -800 0 -71 0
-71 -217 -6 c-120 -4 -456 -7 -748 -7 l-530 0 -155 147 c-85 80 -359 348 -607
596 l-453 449 -347 -343 c-191 -189 -422 -419 -513 -510 -91 -91 -207 -204
-258 -251 l-93 -85 -732 3 c-403 3 -736 6 -742 8 -13 5 -7 186 7 186 12 0 141
130 318 321 68 74 339 350 601 614 262 264 568 574 680 688 l205 209 -166 162
c-401 395 -769 768 -1120 1136 -107 113 -271 280 -366 372 -117 115 -173 176
-177 195 -3 16 -9 56 -12 90 l-7 62 748 -5 749 -4 602 -603z m5170 371 c-73
-73 -353 -358 -622 -633 -573 -585 -744 -755 -756 -755 -5 0 -9 -4 -9 -9 0 -7
-11 -12 -48 -21 -15 -4 -32 -23 -32 -37 0 -11 7 -13 27 -8 22 5 25 4 15 -8
-10 -12 -7 -14 17 -13 16 1 27 5 24 9 -3 5 2 7 10 5 18 -4 108 73 217 186 182
189 1252 1252 1285 1276 51 38 -536 -572 -925 -960 -335 -335 -550 -561 -543
-573 3 -6 1 -7 -5 -3 -8 4 -18 -8 -28 -34 -9 -22 -19 -39 -21 -36 -3 3 -12 -1
-20 -9 -15 -16 -7 -41 22 -65 14 -12 18 -11 26 1 13 21 11 1 -3 -24 -13 -25
-19 -104 -6 -84 6 9 10 9 18 -3 5 -8 10 -10 10 -4 0 5 -5 15 -12 22 -7 7 -9
12 -6 12 7 0 68 -59 68 -66 0 -3 -9 0 -21 6 -26 14 -36 6 -19 -15 16 -20 6
-19 -25 1 -18 11 -25 13 -25 4 0 -7 -7 -10 -17 -6 -16 6 -16 6 0 -12 23 -25
21 -35 -3 -27 -11 4 -20 2 -20 -4 0 -6 5 -11 10 -11 6 0 10 -7 10 -15 0 -8 -4
-15 -10 -15 -5 0 -10 5 -10 11 0 5 -5 7 -11 3 -15 -9 11 -25 32 -19 12 4 16
-2 16 -25 0 -33 -11 -40 -21 -14 -4 9 -9 14 -13 10 -3 -3 2 -15 12 -26 17 -19
17 -20 -5 -28 -16 -6 -20 -11 -11 -16 6 -4 17 -3 24 2 8 6 18 3 32 -11 l20
-20 -21 11 c-30 16 -38 3 -12 -20 18 -15 19 -21 8 -31 -8 -7 -11 -8 -7 -1 7
12 -21 29 -31 19 -3 -3 0 -5 6 -5 16 0 15 -16 -3 -34 -13 -13 -12 -14 10 -12
14 1 28 6 32 9 19 20 20 2 1 -27 -21 -32 -23 -33 -45 -18 -13 8 -26 12 -30 8
-3 -3 -1 -6 6 -6 7 0 10 -4 6 -9 -3 -6 3 -14 12 -20 16 -9 16 -10 1 -11 -9 0
-18 4 -20 9 -1 4 -14 11 -28 15 -19 6 -22 5 -10 -3 13 -10 13 -12 0 -20 -8 -6
-11 -13 -7 -18 5 -4 12 -1 16 6 9 14 31 7 31 -10 0 -6 -3 -8 -8 -5 -4 2 -23 1
-42 -3 -45 -11 111 -13 790 -13 289 0 563 -3 610 -7 l85 -7 -90 -5 c-49 -3
-265 -6 -479 -7 -214 -2 -392 -4 -396 -7 -4 -2 -122 -5 -262 -5 -140 -1 -261
-6 -268 -10 -8 -5 -15 -16 -16 -24 -1 -10 2 -13 9 -9 32 20 58 3 37 -23 -10
-12 -6 -21 26 -51 22 -21 31 -34 20 -30 -11 5 -22 3 -26 -4 -6 -8 -9 -8 -14 0
-4 6 -2 11 3 11 6 0 11 5 11 10 0 18 -19 10 -25 -11 -4 -13 0 -27 11 -40 9
-10 13 -19 9 -19 -5 0 0 -7 11 -15 10 -8 15 -15 10 -15 -5 0 -18 7 -28 17 -23
21 -24 0 0 -23 16 -17 16 -18 -1 -11 -11 4 -27 1 -40 -9 l-22 -16 24 5 c24 6
59 -17 42 -27 -5 -4 -11 -1 -13 5 -2 6 -12 3 -24 -8 -21 -18 -22 -43 -2 -43 6
0 8 7 4 15 -3 8 -1 15 4 15 6 0 10 -6 10 -12 0 -20 -17 -41 -27 -35 -6 4 -9
-8 -8 -26 2 -18 -3 -38 -9 -46 -8 -11 -8 -13 2 -7 6 4 12 3 12 -2 0 -15 185
-22 675 -24 259 -1 511 -4 560 -8 50 -4 -124 -8 -390 -9 -817 -5 -948 -9 -970
-33 -7 -8 -6 -9 3 -4 6 4 12 2 12 -3 0 -6 5 -11 11 -11 5 0 7 5 4 10 -3 6 -1
10 4 10 13 0 14 -17 2 -24 -5 -3 -7 -15 -4 -26 3 -10 -4 -32 -16 -49 -23 -32
-29 -57 -7 -28 11 14 16 15 22 6 4 -7 2 -15 -4 -17 -7 -2 -12 -9 -12 -15 -1
-20 -38 -62 -47 -53 -4 5 -2 11 5 13 6 3 10 9 6 14 -3 5 -12 2 -21 -6 -14 -14
-13 -18 8 -36 20 -17 21 -22 9 -30 -13 -8 -13 -10 0 -18 8 -6 12 -12 10 -15
-3 -2 -14 2 -25 10 -17 13 -18 16 -5 24 8 5 11 12 7 17 -5 4 -12 2 -16 -5 -4
-8 -15 -10 -27 -6 -16 6 -17 5 -6 -7 17 -18 15 -29 -5 -29 -15 0 -15 -1 2 -13
13 -10 15 -16 6 -21 -6 -4 -20 -2 -29 5 -13 10 -12 8 2 -9 13 -15 23 -19 30
-12 5 5 15 10 20 10 6 0 4 -6 -4 -13 -9 -7 -21 -23 -28 -37 -9 -20 -11 -20 -7
-4 6 24 -19 41 -31 22 -4 -6 -3 -8 3 -5 7 4 10 -3 9 -18 -1 -23 -2 -24 -13 -8
-14 18 -15 18 -31 -13 -8 -15 -8 -24 1 -34 10 -10 9 -12 -5 -7 -14 5 -16 0
-13 -34 3 -35 2 -37 -11 -24 -18 18 -24 18 -44 4 -12 -8 -10 -9 9 -4 l23 7
-23 -31 c-18 -25 -20 -33 -9 -46 8 -10 9 -15 1 -15 -6 0 -11 -5 -11 -10 0 -7
7 -7 21 0 11 7 23 10 25 7 2 -2 -6 -9 -19 -14 -20 -10 -30 -6 -64 20 -23 18
-48 37 -56 42 -13 8 -2 37 69 185 139 293 205 488 263 782 40 203 51 323 51
547 -1 190 -11 299 -50 521 -42 241 -78 368 -178 620 -56 141 -91 247 -92 272
0 3 10 4 23 1 20 -4 20 -3 4 7 -9 6 -15 16 -12 21 4 5 11 7 16 4 5 -4 9 -1 9
5 0 6 5 8 11 4 8 -4 7 -9 -2 -16 -8 -6 -10 -11 -4 -14 27 -12 39 -24 31 -31
-5 -4 -11 -2 -13 5 -8 22 -25 13 -18 -10 6 -23 6 -23 -11 -3 -15 18 -16 18
-10 2 3 -10 6 -26 6 -35 0 -12 3 -13 12 -4 14 14 32 16 23 3 -3 -5 0 -13 6
-17 6 -3 15 -1 19 6 7 11 11 10 24 -3 10 -10 12 -18 6 -22 -5 -3 -10 -1 -10 4
0 6 -4 11 -10 11 -16 0 -12 -15 10 -40 13 -15 18 -31 14 -46 -5 -19 -3 -23 10
-18 9 3 16 2 16 -4 0 -6 -6 -12 -12 -15 -7 -2 -9 -8 -5 -13 4 -5 12 -2 16 5 6
9 11 10 15 2 4 -6 -4 -15 -18 -21 -14 -5 -26 -12 -26 -14 0 -3 7 -3 15 0 8 4
15 1 15 -5 0 -6 5 -11 11 -11 5 0 8 4 5 9 -3 5 1 14 9 21 14 12 12 17 -11 42
-15 15 -23 28 -17 28 7 0 25 -16 42 -36 23 -29 27 -40 19 -54 -15 -23 -4 -59
27 -92 13 -15 23 -33 22 -40 -2 -7 -2 -10 0 -5 8 13 25 7 20 -7 -4 -11 -1 -13
11 -9 15 6 15 5 3 -11 -9 -10 -11 -20 -5 -24 5 -4 15 -15 23 -24 17 -22 -2
-24 -23 -2 -9 8 -16 11 -16 6 0 -13 21 -29 43 -33 26 -6 21 -24 -6 -22 -15 1
-16 0 -4 -3 18 -6 24 -24 7 -24 -16 0 12 -38 32 -43 25 -7 23 10 -2 18 -11 3
-20 11 -20 16 0 13 9 11 27 -6 8 -8 19 -13 24 -10 14 9 11 -8 -8 -34 -16 -24
-16 -24 6 -18 18 4 20 3 11 -8 -7 -8 -20 -17 -31 -20 -10 -4 -19 -11 -19 -18
0 -8 3 -8 11 0 8 8 16 7 30 -5 15 -13 16 -19 6 -31 -10 -12 -9 -14 8 -9 21 5
45 -12 45 -33 0 -8 -4 -8 -15 1 -9 7 -15 8 -15 2 0 -10 29 -26 43 -23 4 1 3
-8 -3 -19 -9 -16 -8 -19 5 -13 10 3 25 -4 37 -17 21 -22 21 -23 3 -36 -10 -8
-29 -14 -42 -14 -16 0 -23 -6 -23 -20 0 -21 43 -55 59 -46 5 3 11 1 13 -5 2
-6 19 3 38 20 19 17 38 31 42 31 3 0 10 14 13 31 4 18 10 27 14 21 6 -10 209
184 721 691 141 138 288 278 328 310 40 32 70 62 66 68 -3 5 -2 8 3 7 4 -2 75
64 157 145 82 81 152 147 157 147 4 0 -52 -60 -124 -132z m-7337 -294 c0 -3
-7 -1 -15 6 -8 7 -15 17 -15 22 0 5 7 3 15 -6 8 -8 15 -18 15 -22z m5490 -19
c-6 -8 -9 -19 -5 -25 3 -5 -2 -10 -14 -10 -11 0 -23 -4 -26 -10 -3 -5 -11 -10
-18 -10 -6 0 6 16 28 35 43 37 55 44 35 20z m-5414 -42 c4 4 1 13 -6 22 -7 8
-9 15 -5 15 4 0 33 -28 65 -62 l57 -62 -28 -85 c-16 -46 -27 -86 -24 -89 2 -2
21 30 42 72 34 70 38 74 54 60 10 -9 22 -28 29 -44 13 -32 -3 -98 -64 -255
-23 -59 -33 -99 -29 -117 6 -32 -12 -84 -33 -92 -8 -3 -14 -17 -14 -31 0 -14
-4 -25 -9 -25 -9 0 -70 -250 -96 -388 -55 -304 -45 -712 25 -1010 46 -195 163
-501 266 -695 28 -52 28 -84 1 -101 -24 -15 -39 5 -122 173 -125 251 -236 621
-284 948 -22 146 -10 515 23 705 21 124 29 206 17 188 -11 -18 -40 -167 -42
-219 -2 -34 -2 -35 -7 -6 -3 20 -10 -6 -18 -75 -42 -349 -20 -696 62 -985 76
-270 132 -414 271 -691 l47 -95 -109 -105 c-61 -57 -114 -104 -120 -104 -5 0
11 21 38 46 26 26 45 49 42 52 -2 3 -11 -1 -20 -8 -8 -7 -15 -8 -15 -2 0 13
29 36 37 29 3 -4 12 -2 20 4 11 10 10 14 -4 24 -18 13 -47 9 -38 -5 3 -4 -2
-13 -10 -20 -10 -9 -15 -9 -15 -1 0 6 6 11 13 12 9 0 9 2 -1 6 -8 3 -4 11 13
25 19 15 24 25 19 41 -6 19 -5 20 8 9 13 -10 17 -10 21 2 11 28 -14 34 -38 10
-16 -16 -30 -21 -41 -17 -14 5 -16 3 -11 -11 4 -11 3 -15 -4 -11 -6 4 -8 13
-5 21 3 8 1 14 -4 14 -6 0 -10 5 -10 12 0 9 3 9 12 0 20 -20 32 -14 14 7 -12
14 -14 20 -5 23 8 3 6 10 -8 24 -11 10 -23 27 -26 37 -4 9 -14 17 -23 17 -16
0 -16 -2 1 -20 10 -11 13 -20 7 -20 -6 0 -16 9 -22 20 -9 16 -8 22 5 26 9 4
14 13 10 21 -4 11 -1 13 12 9 17 -7 17 -6 0 11 -19 19 -19 19 -46 -26 -7 -12
-12 -12 -27 4 -17 17 -17 17 4 11 26 -9 31 14 7 38 -18 18 -20 33 -2 18 19
-16 39 19 21 36 -8 7 -14 8 -14 2 0 -19 -20 -10 -49 22 -28 32 -27 48 6 59 9
3 9 9 3 19 -9 13 -11 13 -21 0 -8 -11 -12 -12 -16 -2 -2 6 -10 12 -16 12 -7 0
-18 9 -25 21 -13 20 -12 20 17 -2 27 -20 31 -21 46 -5 14 14 15 18 2 31 -8 8
-17 11 -21 8 -3 -4 -6 -1 -6 5 0 5 -3 18 -7 28 -5 13 -3 16 9 11 11 -4 18 1
21 14 7 25 -4 24 -37 -2 -19 -15 -24 -16 -20 -5 3 9 10 16 16 16 5 0 7 4 4 9
-3 5 1 12 10 15 9 4 14 9 10 13 -9 9 -33 11 -142 14 -122 3 -142 24 -22 23 49
0 91 3 94 8 3 4 -2 8 -11 8 -9 0 -15 6 -12 13 2 6 12 10 22 9 17 -3 17 -2 4
15 -23 30 -33 33 -52 16 -17 -16 -17 -16 -11 1 6 15 3 17 -17 12 -21 -6 -22
-6 -6 4 10 7 21 9 24 6 3 -3 12 2 18 11 10 14 10 20 -1 31 -12 12 -17 12 -31
0 -15 -12 -15 -11 -4 10 10 18 9 25 -4 38 -14 14 -16 14 -21 0 -3 -9 -11 -16
-17 -16 -5 0 -3 8 5 18 8 9 18 25 21 35 5 13 13 17 29 12 17 -5 19 -4 9 3 -11
8 -14 29 -12 79 1 37 0 65 -4 61 -4 -3 -27 0 -53 7 -25 8 -49 12 -54 9 -4 -3
-8 -1 -8 3 0 8 52 43 64 43 17 0 3 -19 -16 -23 l-23 -4 23 -2 c26 -1 41 27 21
40 -19 12 -7 11 28 -1 l28 -10 -29 24 c-16 13 -24 26 -18 30 6 3 12 1 14 -6 3
-7 7 -5 11 6 5 11 3 15 -5 10 -7 -5 -9 -2 -5 8 4 12 1 14 -14 11 -20 -6 -49
12 -49 30 0 5 10 2 22 -9 12 -10 18 -13 13 -5 -4 8 -2 16 5 21 9 5 9 9 1 14
-6 4 -11 2 -11 -4 0 -7 -7 -9 -17 -6 -9 4 -19 2 -23 -4 -4 -6 -13 -5 -26 5
-16 13 -16 14 -1 9 10 -4 17 -1 17 6 0 7 8 9 23 4 12 -3 19 -3 15 1 -4 5 -2
15 5 23 10 13 9 14 -10 8 -28 -9 -40 11 -19 32 16 16 18 16 31 -1 8 -12 15
-14 20 -8 3 6 1 11 -4 11 -22 0 -10 20 12 21 21 0 21 1 2 9 -11 5 -63 9 -115
10 -88 2 -91 3 -45 11 28 5 63 10 78 11 25 2 27 4 11 15 -10 7 -15 16 -11 19
4 4 12 2 19 -4 10 -8 17 -4 30 19 20 34 14 38 -10 9 l-17 -21 -13 21 c-7 12
-8 20 -2 20 5 0 10 -5 10 -12 0 -6 3 -8 6 -5 4 4 1 13 -6 22 -11 13 -9 15 10
13 13 -2 25 3 27 12 4 13 3 13 -6 0 -8 -12 -13 -12 -22 -3 -10 10 -17 9 -31
-4 -24 -21 -23 -12 1 16 13 15 20 18 24 9 2 -7 8 -9 13 -5 5 5 -7 23 -29 42
-29 25 -34 34 -22 38 8 4 12 13 9 21 -3 8 1 16 12 18 20 4 57 105 42 114 -5 3
-6 19 -3 34 4 17 2 31 -6 36 -8 4 -9 3 -5 -4 4 -7 3 -12 -2 -12 -17 0 -23 32
-10 49 7 9 13 18 15 20 1 2 9 -4 18 -13 9 -9 21 -16 27 -16 6 0 -2 11 -18 25
-33 28 -41 30 -47 13 -2 -7 -2 -3 0 10 4 23 -12 31 -20 10 -4 -8 -6 -9 -6 -2
-1 6 6 17 14 24 10 9 15 9 15 1 0 -6 5 -11 10 -11 6 0 10 6 10 13 0 7 9 23 20
35 12 12 16 22 10 22 -5 0 -10 7 -10 15 0 8 5 15 11 15 5 0 7 5 4 10 -4 7 -14
3 -26 -11 -17 -20 -19 -20 -36 -4 -16 17 -16 17 5 11 13 -5 22 -3 22 3 0 6 -4
11 -9 11 -5 0 -11 7 -15 15 -4 13 -2 13 14 5 24 -13 33 -13 25 0 -9 14 8 12
25 -2 12 -11 12 -10 1 5 -12 15 -11 20 5 31 15 12 16 16 5 30 -15 18 -31 21
-31 6 0 -5 7 -10 15 -10 8 0 15 -4 15 -10 0 -5 -2 -10 -4 -10 -2 0 -12 -3 -22
-7 -11 -4 -15 -3 -10 5 8 13 -23 52 -42 52 -7 0 -10 5 -7 11 5 7 14 4 26 -7
11 -9 22 -14 27 -9 4 4 1 10 -5 12 -7 3 -13 9 -13 15 0 6 6 5 15 -2 23 -19 31
-3 10 20 -10 11 -13 20 -7 20 6 0 15 -6 19 -14 4 -7 19 -19 33 -26 l25 -13
-27 30 c-30 31 -34 43 -17 43 5 0 7 -4 4 -10 -3 -5 -2 -10 4 -10 23 0 19 21
-11 56 -27 30 -29 35 -10 25 12 -6 22 -15 22 -19 0 -4 9 -13 20 -19 18 -12 18
-11 -1 22 -12 19 -26 35 -32 35 -6 0 -8 3 -5 6 4 3 16 0 28 -6 32 -17 34 -7 4
23 -19 20 -22 27 -11 27 8 0 18 6 21 13 5 10 7 10 12 0 8 -18 24 -16 24 2 0
18 16 20 23 3 4 -9 6 -9 6 -2 1 7 -14 29 -33 50 -36 41 -40 60 -6 29 18 -16
20 -16 35 -1 9 9 13 16 8 16 -4 0 0 7 10 14 12 9 14 16 8 21 -17 10 -13 28 4
21 9 -3 15 0 15 9 0 8 -4 15 -10 15 -5 0 -10 7 -10 15 0 8 -4 15 -10 15 -5 0
-10 5 -10 12 0 6 11 1 25 -12 15 -14 25 -18 25 -10 0 7 -9 21 -21 31 l-21 18
26 7 c31 7 32 14 6 46 -19 25 -19 26 0 48 11 13 22 21 25 18 3 -2 -4 -14 -15
-26 -13 -14 -16 -23 -9 -28 6 -3 16 0 21 7 6 10 7 6 3 -11 -4 -17 -3 -21 3
-11 5 7 8 29 7 47 -2 19 0 36 5 39 5 3 6 13 3 22 -4 11 -3 14 6 9 12 -8 81 59
81 78 0 6 -7 2 -15 -8 -28 -36 -27 -8 1 34 20 29 30 37 35 28 5 -7 9 -8 9 -3
0 6 -8 21 -17 35 -12 17 -13 25 -5 28 7 2 9 8 6 14 -3 5 2 16 12 23 11 9 14
14 7 15 -7 0 -13 6 -13 14 0 8 -6 17 -12 19 -10 4 -10 6 -1 6 7 1 20 -11 30
-26 10 -16 22 -32 28 -36 5 -5 -1 -5 -14 -2 -17 5 -22 4 -19 -6 8 -23 36 -22
43 2 4 12 3 24 -2 28 -5 3 -17 20 -27 36 l-19 30 37 -34 c33 -32 54 -30 23 1
-8 7 -19 25 -26 38 -12 23 -11 22 13 -4 14 -16 29 -26 32 -23z m-151 -3 c3 -5
1 -10 -4 -10 -6 0 -11 5 -11 10 0 6 2 10 4 10 3 0 8 -4 11 -10z m7480 -42
c-28 -28 -206 -209 -397 -402 -190 -193 -387 -399 -438 -458 -51 -60 -96 -108
-101 -108 -4 0 -6 -6 -3 -13 12 -31 -236 -309 -317 -355 -18 -11 -33 -25 -32
-30 2 -6 -4 -9 -12 -6 -11 5 -12 10 -2 27 16 28 40 57 47 57 8 0 189 180 200
199 6 10 10 11 10 4 0 -8 8 -5 20 7 12 12 18 25 15 30 -4 6 1 7 11 3 13 -5 16
-3 11 10 -4 10 -2 16 6 14 7 -1 11 6 11 15 -1 10 4 14 12 11 8 -3 14 0 14 6 0
6 -5 11 -11 11 -5 0 8 19 29 43 22 23 62 69 88 102 27 33 56 68 64 79 68 82
261 277 270 271 4 -3 7 3 6 12 0 10 4 18 10 18 13 0 120 103 353 338 91 92
170 167 176 167 5 0 -13 -23 -40 -52z m-7445 18 c0 -3 -4 -8 -10 -11 -5 -3
-10 -1 -10 4 0 6 5 11 10 11 6 0 10 -2 10 -4z m-50 -40 c0 -3 -4 -8 -10 -11
-5 -3 -10 -1 -10 4 0 6 5 11 10 11 6 0 10 -2 10 -4z m50 -16 c0 -5 -2 -10 -4
-10 -3 0 -8 5 -11 10 -3 6 -1 10 4 10 6 0 11 -4 11 -10z m-60 -30 c0 -5 -4
-10 -10 -10 -5 0 -10 5 -10 10 0 6 5 10 10 10 6 0 10 -4 10 -10z m5468 -21
c70 -69 114 -161 203 -434 51 -155 106 -429 130 -645 13 -119 6 -499 -12 -620
-16 -114 -65 -327 -117 -510 -39 -141 -61 -195 -148 -371 -56 -114 -108 -210
-115 -214 -8 -5 -21 2 -35 19 -27 31 -25 43 36 144 60 103 135 277 184 429 53
164 56 174 97 368 30 142 32 165 36 423 4 183 1 304 -7 370 -32 256 -127 609
-222 827 -70 159 -94 245 -70 245 5 0 23 -14 40 -31z m-5418 10 c0 -5 4 -8 9
-4 5 3 13 0 17 -6 5 -9 -1 -10 -20 -5 -15 4 -26 2 -26 -4 0 -5 5 -10 10 -10 6
0 10 -7 10 -15 0 -8 -4 -15 -10 -15 -5 0 -10 -7 -10 -16 0 -9 -5 -14 -12 -12
-18 6 -21 28 -4 28 19 0 22 26 4 32 -9 3 -8 9 2 21 17 19 30 22 30 6z m5199
-46 c-34 -50 -145 -165 -587 -610 -144 -144 -257 -265 -251 -269 5 -3 87 -10
181 -15 190 -11 207 -8 256 44 16 18 62 64 103 103 l74 71 0 71 c0 65 3 73 30
102 62 65 166 60 230 -11 29 -33 35 -47 35 -85 0 -25 -7 -58 -15 -74 -28 -54
-112 -80 -195 -60 -61 15 -70 10 -175 -90 -38 -36 -89 -81 -112 -99 l-43 -33
-230 3 c-218 3 -231 2 -258 -18 -29 -21 -51 -68 -38 -80 4 -5 123 -8 263 -8
245 0 256 1 267 20 14 26 116 127 186 185 49 40 52 42 35 15 -81 -124 -189
-261 -217 -277 -17 -10 -105 -13 -360 -15 -186 -1 -338 0 -338 3 0 10 1182
1186 1187 1181 3 -3 -10 -27 -28 -54z m-5275 31 c3 -8 2 -12 -4 -9 -6 3 -10
10 -10 16 0 14 7 11 14 -7z m-24 -24 c0 -5 -2 -10 -4 -10 -3 0 -8 5 -11 10 -3
6 -1 10 4 10 6 0 11 -4 11 -10z m55 0 c3 -5 1 -10 -4 -10 -6 0 -11 5 -11 10 0
6 2 10 4 10 3 0 8 -4 11 -10z m769 -192 c93 -95 339 -345 548 -555 208 -210
378 -386 378 -390 0 -4 -153 -7 -339 -5 l-340 3 -44 25 c-52 29 -155 126 -139
132 6 2 35 -14 64 -35 63 -47 61 -47 398 -47 242 -1 245 -1 248 20 2 16 -8 28
-44 49 l-48 28 -197 -2 c-168 -2 -202 0 -230 14 -41 22 -214 159 -249 198 -23
26 -29 28 -47 18 -30 -15 -87 -14 -129 4 -20 8 -40 13 -44 10 -18 -11 -50 48
-50 92 0 86 72 163 153 163 45 0 95 -27 117 -62 18 -28 21 -44 16 -100 l-5
-67 67 -54 c37 -30 76 -63 87 -73 83 -77 71 -74 243 -74 162 0 191 6 176 33
-5 9 -137 145 -294 304 -333 336 -475 491 -477 521 -1 12 1 22 5 22 4 0 83
-78 176 -172z m6906 169 c0 -2 -10 -12 -21 -23 -22 -19 -22 -19 -8 4 12 19 29
30 29 19z m-7670 -37 c20 -17 21 -21 7 -35 -15 -14 -18 -14 -37 2 -11 10 -20
22 -20 27 0 5 9 1 20 -9 24 -22 39 -13 16 10 -30 30 -19 34 14 5z m5728 -16
c-4 -3 -12 5 -18 18 -12 22 -12 22 6 6 10 -10 15 -20 12 -24z m32 32 c0 -3 -4
-8 -10 -11 -5 -3 -10 -1 -10 4 0 6 5 11 10 11 6 0 10 -2 10 -4z m-5820 -50 c0
-3 -4 -8 -10 -11 -5 -3 -10 -1 -10 4 0 6 5 11 10 11 6 0 10 -2 10 -4z m5 -46
c3 -5 1 -10 -4 -10 -6 0 -11 5 -11 10 0 6 2 10 4 10 3 0 8 -4 11 -10z m7485
-118 c-63 -58 -205 -195 -315 -303 -110 -108 -220 -214 -245 -235 -25 -22 -51
-45 -58 -51 -7 -7 -18 -13 -23 -13 -4 0 90 98 209 218 231 229 284 279 372
352 30 25 80 68 110 97 30 28 57 49 60 47 2 -3 -47 -53 -110 -112z m-1670 66
c0 -6 -7 -5 -15 2 -8 7 -15 17 -15 22 0 6 7 5 15 -2 8 -7 15 -17 15 -22z m38
-46 c8 -12 12 -22 10 -22 -8 0 -48 37 -48 45 0 13 23 -1 38 -23z m-5908 -32
c0 -5 -2 -10 -4 -10 -3 0 -8 5 -11 10 -3 6 -1 10 4 10 6 0 11 -4 11 -10z
m5977 -35 c8 -9 13 -18 11 -21 -3 -2 -13 5 -23 16 -21 23 -11 27 12 5z m-20
-20 c8 -9 13 -19 10 -22 -6 -5 -37 21 -37 31 0 10 11 6 27 -9z m-5951 -42 c-7
-7 -26 7 -26 19 0 6 6 6 15 -2 9 -7 13 -15 11 -17z m376 5 c-7 -7 -12 -8 -12
-2 0 14 12 26 19 19 2 -3 -1 -11 -7 -17z m-405 -34 c2 -13 1 -15 -4 -4 -3 8
-11 19 -17 23 -7 6 -6 7 4 4 8 -2 16 -12 17 -23z m18 -33 c-3 -12 -10 -21 -15
-21 -4 0 -3 11 3 24 14 29 22 27 12 -3z m6029 -10 c4 -5 -3 -7 -13 -4 -11 3
-22 11 -25 19 -4 11 -2 12 14 4 10 -5 21 -14 24 -19z m-6104 -21 c0 -5 -2 -10
-4 -10 -3 0 -8 5 -11 10 -3 6 -1 10 4 10 6 0 11 -4 11 -10z m-30 -20 c0 -5 -4
-10 -10 -10 -5 0 -10 5 -10 10 0 6 5 10 10 10 6 0 10 -4 10 -10z m50 -10 c0
-5 7 -10 15 -10 8 0 15 -4 15 -10 0 -17 -25 -11 -38 10 -7 12 -8 20 -2 20 5 0
10 -4 10 -10z m404 -15 c-4 -8 -8 -15 -10 -15 -2 0 -4 7 -4 15 0 8 4 15 10 15
5 0 7 -7 4 -15z m-424 -5 c0 -5 -4 -10 -10 -10 -5 0 -10 5 -10 10 0 6 5 10 10
10 6 0 10 -4 10 -10z m6110 -30 c0 -5 -2 -10 -4 -10 -3 0 -8 5 -11 10 -3 6 -1
10 4 10 6 0 11 -4 11 -10z m-6144 -128 c-6 -5 -36 23 -36 34 0 4 9 -1 20 -11
11 -10 18 -20 16 -23z m6214 -122 c0 -5 -4 -10 -10 -10 -5 0 -10 5 -10 10 0 6
5 10 10 10 6 0 10 -4 10 -10z m-6246 -149 c-10 -10 -21 -17 -23 -15 -6 6 20
34 32 34 6 0 2 -8 -9 -19z m-63 -34 c-10 -9 -11 -8 -5 6 3 10 9 15 12 12 3 -3
0 -11 -7 -18z m19 -77 c0 -5 -5 -10 -11 -10 -5 0 -7 5 -4 10 3 6 8 10 11 10 2
0 4 -4 4 -10z m6330 -70 c0 -5 -5 -10 -11 -10 -5 0 -7 5 -4 10 3 6 8 10 11 10
2 0 4 -4 4 -10z m-5560 -36 c29 -12 48 -29 67 -62 l26 -45 96 7 c53 3 334 6
625 7 434 1 530 -1 537 -13 12 -19 11 -23 -10 -42 -21 -19 -92 -21 -913 -25
l-336 -1 -20 -34 c-24 -41 -93 -76 -150 -76 -37 0 -49 6 -92 48 -46 44 -50 52
-50 94 0 53 28 101 79 135 40 27 85 29 141 7z m5001 -7 c19 -12 45 -43 58 -70
30 -61 23 -101 -27 -157 -29 -32 -46 -43 -78 -47 -56 -7 -125 24 -155 70 l-23
34 -395 7 c-218 3 -507 4 -642 2 l-247 -4 -12 23 c-24 44 29 97 73 73 16 -9
168 -14 602 -21 319 -4 589 -5 600 -3 11 3 30 23 42 44 40 70 137 94 204 49z
m-5754 -11 c0 -8 -6 -12 -15 -9 -11 5 -11 7 0 14 7 5 13 9 14 9 0 0 1 -6 1
-14z m6463 -98 c0 -15 -15 -8 -28 12 -12 19 -11 20 8 8 11 -7 20 -16 20 -20z
m-112 -76 c2 -7 -2 -10 -12 -6 -9 3 -16 11 -16 16 0 13 23 5 28 -10z m-8 -36
c0 -3 -4 -8 -10 -11 -5 -3 -10 -1 -10 4 0 6 5 11 10 11 6 0 10 -2 10 -4z m25
-26 c3 -6 -1 -7 -9 -4 -18 7 -21 14 -7 14 6 0 13 -4 16 -10z m-15 -30 c0 -5
-7 -7 -15 -4 -8 4 -12 10 -9 15 6 11 24 2 24 -11z m-4400 -2 c0 -6 -18 -29
-41 -50 -34 -33 -43 -37 -52 -25 -10 12 -65 16 -288 20 l-275 6 -59 -45 c-33
-24 -64 -44 -69 -44 -5 0 15 27 45 59 30 32 60 66 67 75 11 14 51 16 342 16
243 0 330 -3 330 -12z m3073 4 c10 -4 24 -20 32 -36 19 -35 19 -40 1 -33 -20
8 -585 11 -593 4 -8 -8 33 -58 65 -79 24 -16 54 -18 264 -18 138 0 248 4 264
10 35 14 48 5 180 -122 l104 -101 25 23 c19 18 36 23 70 22 108 -1 186 -113
141 -200 -39 -76 -116 -101 -199 -64 -57 25 -80 59 -81 123 -1 47 -4 51 -81
129 -44 45 -100 93 -125 109 l-45 27 -208 -7 c-114 -3 -211 -9 -214 -13 -4 -4
19 -30 51 -59 32 -29 239 -233 460 -454 l401 -402 65 137 c36 75 81 184 102
242 20 58 37 100 37 94 2 -21 -68 -211 -107 -294 -22 -47 -54 -115 -71 -152
l-31 -66 -97 97 c-54 53 -279 277 -501 496 -552 548 -577 574 -561 579 8 3 28
7 44 9 54 7 589 6 608 -1z m1317 -43 c0 -6 7 -8 18 -4 12 4 14 3 6 -5 -6 -6
-18 -8 -27 -4 -18 7 -23 24 -7 24 6 0 10 -5 10 -11z m-6365 -9 c3 -5 2 -10 -4
-10 -5 0 -13 5 -16 10 -3 6 -2 10 4 10 5 0 13 -4 16 -10z m5872 -92 c-2 -13
-4 -3 -4 22 0 25 2 35 4 23 2 -13 2 -33 0 -45z m-4466 -10 c110 -12 372 -5
412 11 19 7 27 7 27 0 0 -11 -139 -152 -576 -581 -149 -146 -297 -295 -328
-331 -60 -67 -86 -87 -86 -63 0 27 299 340 718 750 68 67 128 129 133 139 9
16 -3 17 -197 17 l-206 0 -68 -57 c-37 -32 -87 -75 -112 -95 l-45 -36 10 -49
c14 -68 -3 -100 -72 -135 -30 -16 -66 -28 -80 -28 -38 0 -86 33 -117 80 -73
110 38 240 171 201 22 -6 45 -13 51 -14 6 -1 57 40 112 91 133 122 146 132
153 120 4 -6 49 -15 100 -20z m4456 -65 c-3 -10 -5 -2 -5 17 0 19 2 27 5 18 2
-10 2 -26 0 -35z m523 7 c0 -5 -4 -10 -10 -10 -5 0 -10 5 -10 10 0 6 5 10 10
10 6 0 10 -4 10 -10z m-540 -110 c-7 -39 -14 -69 -16 -67 -3 2 1 36 7 76 7 39
14 69 17 67 2 -3 -1 -37 -8 -76z m-39 -185 c-11 -44 -20 -73 -20 -65 -1 24 34
174 37 158 1 -7 -6 -49 -17 -93z m534 47 c-3 -3 -11 0 -18 7 -9 10 -8 11 6 5
10 -3 15 -9 12 -12z m-6228 -24 c-3 -8 -6 -5 -6 6 -1 11 2 17 5 13 3 -3 4 -12
1 -19z m6208 -47 c-6 -5 -25 10 -25 20 0 5 6 4 14 -3 8 -7 12 -15 11 -17z
m-6235 -22 c-7 -11 -14 -19 -16 -16 -7 7 7 37 17 37 6 0 5 -9 -1 -21z m5687
-91 c-3 -8 -6 -5 -6 6 -1 11 2 17 5 13 3 -3 4 -12 1 -19z m-5627 -18 c0 -5 -4
-10 -10 -10 -5 0 -10 5 -10 10 0 6 5 10 10 10 6 0 10 -4 10 -10z m6126 -52 c4
-7 4 -10 -1 -6 -4 4 -14 3 -22 -3 -8 -8 -13 -8 -13 -1 0 6 6 13 13 15 6 3 13
6 14 6 1 1 5 -5 9 -11z m-6166 -8 c0 -5 -5 -10 -11 -10 -5 0 -7 5 -4 10 3 6 8
10 11 10 2 0 4 -4 4 -10z m70 0 c0 -5 -4 -10 -10 -10 -5 0 -10 5 -10 10 0 6 5
10 10 10 6 0 10 -4 10 -10z m-67 -35 c-3 -9 -8 -14 -10 -11 -3 3 -2 9 2 15 9
16 15 13 8 -4z m6177 1 c0 -2 -7 -7 -16 -10 -8 -3 -12 -2 -9 4 6 10 25 14 25
6z m-80 -101 c0 -12 -19 -12 -23 0 -4 9 -1 12 9 8 7 -3 14 -7 14 -8z m-2989
-29 c13 -12 51 -45 84 -71 33 -27 134 -123 225 -214 91 -91 233 -229 315 -306
83 -77 209 -199 280 -271 72 -72 156 -154 187 -182 l57 -52 729 0 c695 0 942
-5 942 -20 0 -3 -348 -7 -772 -8 -425 -1 -805 -4 -845 -8 l-72 -6 -58 53 c-32
30 -165 159 -295 288 -131 129 -251 243 -268 254 l-30 19 0 -74 c0 -41 -3
-123 -6 -181 l-7 -106 51 -50 c27 -27 65 -57 84 -66 107 -55 137 -146 78 -238
-32 -50 -57 -62 -131 -58 -26 1 -73 38 -102 81 -35 51 -16 131 46 190 l26 25
-51 52 -51 51 9 204 c11 228 13 218 -64 278 -24 19 -69 66 -100 104 -31 38
-63 71 -69 74 -10 3 -13 -66 -13 -321 0 -350 -2 -339 55 -353 41 -10 185 -150
185 -180 0 -13 -4 -25 -9 -29 -6 -3 -47 29 -93 72 -46 43 -107 98 -137 122
l-53 45 3 346 4 347 -30 39 c-16 21 -38 49 -49 62 -46 53 -46 56 -46 -505 l1
-528 37 -23 c54 -33 82 -79 82 -134 0 -39 -5 -51 -42 -91 -68 -72 -139 -75
-209 -9 -72 68 -69 152 7 228 l44 45 0 519 c0 555 1 550 -47 498 -11 -13 -33
-43 -49 -68 l-28 -45 2 -215 c2 -261 -9 -492 -25 -497 -7 -3 -40 -22 -74 -44
-34 -22 -64 -38 -66 -35 -10 10 28 56 67 82 29 19 40 34 41 53 7 129 2 591 -6
591 -5 0 -33 -23 -60 -52 -28 -29 -79 -80 -114 -113 l-64 -60 6 -206 7 -206
-50 -39 c-27 -21 -49 -43 -50 -47 0 -4 16 -22 36 -39 51 -45 67 -81 59 -131
-14 -82 -63 -129 -135 -131 -68 -1 -140 70 -140 140 0 50 33 96 124 172 l91
75 7 81 c9 124 9 269 -2 286 -7 12 -45 -20 -187 -161 -98 -97 -205 -200 -238
-230 -33 -29 -98 -90 -145 -135 l-85 -81 -225 8 c-124 4 -505 9 -847 11 -409
2 -622 6 -620 13 7 21 189 25 917 19 l756 -6 51 40 c28 22 142 130 254 240
112 109 253 246 313 303 60 57 211 202 335 321 124 120 229 218 232 218 4 0
17 -11 30 -24z m-2952 -46 c6 0 11 -4 11 -10 0 -5 -3 -10 -7 -10 -15 1 -43 28
-43 41 1 10 4 9 14 -3 7 -10 18 -18 25 -18z m5911 -1 c12 -8 9 -9 -9 -4 -19 6
-23 4 -18 -8 4 -11 2 -14 -9 -10 -17 6 -18 20 -1 26 18 8 21 8 37 -4z m-5923
-75 c-3 -3 -12 -4 -19 -1 -8 3 -5 6 6 6 11 1 17 -2 13 -5z m5903 -4 c0 -5 -2
-10 -4 -10 -3 0 -8 5 -11 10 -3 6 -1 10 4 10 6 0 11 -4 11 -10z m-40 -50 c0
-5 -4 -10 -10 -10 -5 0 -10 5 -10 10 0 6 5 10 10 10 6 0 10 -4 10 -10z m-60
-75 c7 -8 8 -15 2 -15 -5 0 -15 7 -22 15 -7 8 -8 15 -2 15 5 0 15 -7 22 -15z
m-5735 -85 c3 -5 1 -10 -4 -10 -6 0 -11 5 -11 10 0 6 2 10 4 10 3 0 8 -4 11
-10z m5658 -44 c-4 -6 -8 -6 -10 1 -3 7 -11 9 -19 6 -10 -4 -12 0 -8 10 5 13
9 14 24 5 10 -7 16 -17 13 -22z m-5618 15 c3 -5 0 -13 -6 -17 -8 -4 -9 -3 -5
4 4 7 1 12 -8 12 -9 0 -16 -5 -16 -12 0 -6 -3 -9 -6 -5 -9 9 5 27 21 27 8 0
16 -4 20 -9z m5666 -8 c13 -16 12 -17 -3 -4 -10 7 -18 15 -18 17 0 8 8 3 21
-13z m-3138 -94 c4 -144 -4 -308 -13 -272 -11 48 -23 328 -15 353 13 41 26 4
28 -81z m-2487 43 c-4 -3 -11 0 -16 8 -15 24 -11 33 6 15 9 -9 13 -19 10 -23z
m-22 -21 c-5 -6 -44 30 -44 41 0 5 11 -2 24 -14 13 -13 22 -25 20 -27z m3146
-122 c0 -106 -5 -171 -17 -222 l-17 -72 -9 60 c-11 75 -3 331 12 368 22 56 31
16 31 -134z m-3120 111 c0 -5 -5 -10 -11 -10 -5 0 -7 5 -4 10 3 6 8 10 11 10
2 0 4 -4 4 -10z m80 -25 c-7 -9 -15 -13 -17 -11 -7 7 7 26 19 26 6 0 6 -6 -2
-15z m5403 -15 c-9 -11 -19 -17 -21 -15 -6 6 18 35 29 35 5 0 1 -9 -8 -20z
m58 -13 c-10 -9 -11 -8 -5 6 3 10 9 15 12 12 3 -3 0 -11 -7 -18z m-5526 -25
c-3 -3 -11 0 -18 7 -9 10 -8 11 6 5 10 -3 15 -9 12 -12z m90 8 c3 -5 1 -10 -4
-10 -6 0 -11 5 -11 10 0 6 2 10 4 10 3 0 8 -4 11 -10z m-1813 -340 c26 -27 30
-36 25 -68 -13 -76 -93 -107 -142 -55 -56 62 -17 142 73 152 8 0 27 -13 44
-29z m4111 -195 c-15 -19 -32 -35 -36 -35 -10 0 0 18 26 48 33 36 41 25 10
-13z m-1033 -215 c250 -131 345 -172 550 -240 238 -80 399 -113 630 -130 356
-26 594 3 1016 124 244 70 366 118 613 240 136 67 161 76 161 54 -1 -46 -109
-116 -325 -213 -226 -102 -441 -169 -743 -235 -200 -43 -272 -50 -490 -50
-273 0 -465 24 -719 89 -202 52 -502 167 -613 235 -30 18 -79 46 -108 60 -60
30 -132 91 -132 112 0 27 46 13 160 -46z m-230 31 c0 -4 21 -25 48 -44 26 -20
52 -41 58 -46 12 -10 194 -107 295 -158 184 -92 542 -203 733 -228 20 -2 61
-8 93 -14 132 -23 334 -34 518 -28 199 6 328 23 417 57 30 11 105 29 167 40
62 12 139 30 170 41 31 12 94 34 141 49 222 74 539 231 620 307 32 30 90 48
75 23 -3 -5 -1 -10 4 -10 6 0 11 5 11 10 0 6 5 10 11 10 8 0 8 -4 -1 -15 -6
-8 -10 -18 -8 -22 6 -11 -39 -53 -47 -45 -3 4 -3 -1 1 -11 6 -16 -3 -22 -33
-18 -7 1 -17 -8 -23 -20 -8 -15 -9 -19 -1 -15 6 4 11 0 11 -8 0 -17 16 -22 22
-7 2 5 11 3 22 -4 16 -12 14 -13 -23 -10 -22 2 -45 7 -51 10 -16 10 -68 -17
-73 -37 -3 -10 -2 -18 3 -18 4 0 10 -7 13 -15 5 -12 2 -12 -20 -2 -21 9 -27 9
-31 -1 -2 -7 -8 -10 -13 -6 -5 3 -22 -4 -38 -15 -31 -22 -48 -17 -29 8 7 9 0
5 -14 -8 -15 -12 -31 -20 -37 -16 -6 3 -11 1 -11 -5 0 -7 -7 -10 -15 -6 -8 3
-15 2 -15 -3 0 -13 40 -45 47 -37 4 4 1 11 -7 16 -8 5 -11 12 -7 16 4 4 14 -1
21 -12 21 -28 -8 -43 -35 -18 -17 16 -24 13 -20 -10 1 -5 -7 -6 -19 -3 -11 3
-23 1 -26 -4 -3 -5 -10 -7 -15 -3 -5 3 -6 11 -2 17 4 7 -10 -1 -30 -16 -35
-26 -52 -26 -25 1 9 9 9 12 0 12 -7 0 -12 -4 -12 -10 0 -5 -6 -10 -14 -10 -10
0 -12 -7 -8 -22 5 -22 5 -22 -12 -5 -10 9 -22 17 -27 17 -6 0 -3 -7 5 -16 21
-21 20 -27 -4 -19 -30 9 -24 -2 9 -19 16 -9 32 -12 36 -8 5 4 5 2 1 -5 -7 -12
-30 -8 -52 9 -7 5 -22 11 -34 13 -17 3 -20 2 -10 -10 8 -10 8 -15 -1 -21 -7
-4 -18 1 -26 11 -10 15 -13 15 -13 4 0 -8 5 -20 12 -27 8 -8 9 -12 1 -12 -6 0
-19 7 -27 16 -10 10 -16 11 -16 3 0 -8 -5 -8 -17 2 -16 13 -17 12 -4 -3 7 -10
17 -16 21 -13 4 3 19 -6 33 -19 l25 -23 -25 0 c-18 0 -21 2 -12 8 12 7 11 9
-1 10 -8 1 -19 1 -24 0 -4 -1 -15 6 -22 16 -13 17 -14 17 -8 1 3 -10 2 -18 -4
-18 -14 0 -25 34 -13 38 6 2 11 8 11 14 0 7 -5 7 -13 -1 -8 -6 -18 -7 -22 -3
-5 4 0 -9 11 -28 16 -27 18 -40 9 -56 l-10 -21 -18 23 c-16 22 -77 61 -77 50
0 -2 16 -14 35 -26 19 -12 35 -29 35 -39 0 -9 5 -22 12 -29 9 -9 9 -12 1 -12
-7 0 -14 9 -18 20 -7 22 -61 70 -78 70 -7 -1 0 -8 16 -16 15 -8 27 -19 27 -23
0 -14 -30 -22 -31 -8 0 9 -2 9 -6 0 -7 -19 -24 -16 -50 9 -35 33 -28 7 8 -30
18 -18 25 -30 17 -27 -8 3 -23 -4 -33 -15 -17 -18 -17 -24 -6 -43 13 -21 13
-21 -5 -4 -16 15 -17 20 -6 38 7 11 10 24 7 29 -3 6 1 7 11 3 14 -5 14 -3 -2
15 -22 26 -25 27 -18 7 4 -8 1 -15 -5 -15 -6 0 -11 5 -11 12 0 6 -3 8 -6 5 -4
-4 -1 -14 7 -23 12 -15 11 -16 -11 -9 -20 6 -23 5 -12 -6 17 -18 15 -34 -3
-19 -20 17 -19 32 6 66 15 21 11 19 -11 -6 -17 -19 -36 -34 -41 -32 -6 1 -8
-2 -4 -8 4 -6 2 -17 -5 -25 -7 -9 -8 -15 -1 -20 6 -3 13 6 17 20 l6 26 13 -23
c12 -24 9 -41 -4 -20 -5 9 -12 4 -22 -14 -11 -21 -11 -28 -1 -31 6 -3 12 -9
12 -15 0 -6 -6 -6 -15 2 -8 7 -15 23 -15 36 0 13 -5 24 -11 24 -6 0 -9 -7 -6
-15 8 -20 -11 -29 -28 -15 -13 11 -15 7 -15 -24 0 -20 5 -36 11 -36 6 0 8 10
5 23 l-6 22 11 -22 c10 -20 21 -23 73 -25 34 0 66 -2 73 -2 24 -2 132 -117
140 -149 5 -18 6 -168 3 -335 l-5 -303 -35 -30 c-99 -82 -101 -83 -254 -93
-168 -11 -183 -6 -283 87 l-63 59 0 297 c0 174 4 311 10 333 13 45 79 100 152
126 27 9 49 23 49 32 1 11 3 10 6 -2 5 -21 23 -24 23 -5 0 6 3 22 6 35 4 12 2
22 -4 22 -6 0 -13 -8 -15 -17 -4 -15 -5 -15 -6 -2 0 9 6 22 14 29 12 10 15 10
15 -1 1 -10 5 -8 15 5 8 11 17 17 20 14 3 -3 0 -12 -8 -19 -18 -19 -30 -66
-18 -74 5 -3 13 5 16 17 13 45 30 78 42 83 7 2 13 0 13 -6 0 -6 5 -7 12 -3 8
5 9 2 5 -9 -3 -9 -2 -19 2 -22 5 -2 11 4 14 15 3 11 1 20 -5 20 -5 0 -6 5 -2
11 5 8 9 8 14 -1 5 -9 9 -9 14 -1 4 6 2 11 -4 11 -6 0 -8 6 -4 13 4 6 -2 4
-13 -5 -25 -23 -40 -23 -22 -1 12 14 9 13 -15 -2 -40 -27 -66 -27 -62 -1 2 12
1 15 -1 8 -4 -10 -8 -10 -19 -1 -7 6 -11 16 -7 22 3 6 1 7 -6 3 -8 -5 -5 -16
11 -39 12 -17 16 -27 8 -22 -9 6 -21 -1 -37 -21 -16 -20 -23 -24 -23 -13 0 9
7 22 15 29 8 7 15 17 15 22 0 6 -16 -7 -35 -28 l-36 -39 22 40 c11 22 14 32 6
22 -8 -9 -21 -15 -29 -12 -16 6 -45 -21 -34 -32 3 -4 13 2 21 13 8 10 15 14
15 8 0 -27 -27 -35 -63 -18 -42 20 -51 37 -35 67 10 19 9 21 -4 9 -11 -9 -18
-10 -23 -2 -10 16 -25 2 -18 -18 6 -15 5 -15 -10 -3 -9 7 -14 18 -10 24 3 6 1
7 -5 3 -6 -4 -9 -13 -5 -21 4 -11 1 -13 -11 -9 -12 5 -15 2 -10 -10 4 -10 13
-15 20 -12 8 3 11 0 8 -9 -3 -8 -12 -11 -20 -8 -8 3 -14 -1 -14 -11 0 -19 -33
-38 -53 -30 -9 3 -22 -4 -31 -17 -15 -23 -16 -23 -12 9 3 17 7 35 10 40 2 4
-5 9 -17 9 -17 2 -19 0 -7 -7 13 -8 13 -11 1 -19 -8 -5 -10 -14 -6 -21 6 -10
3 -10 -11 -2 -15 8 -24 7 -38 -6 -17 -15 -19 -15 -14 -1 5 12 -1 15 -28 12
-32 -2 -33 -1 -18 14 15 15 15 18 -1 30 -15 10 -16 15 -5 28 8 10 9 15 1 15
-6 0 -11 -6 -11 -12 0 -9 -4 -8 -10 2 -8 12 -10 10 -8 -10 2 -17 -3 -25 -17
-28 -11 -2 -27 -11 -36 -19 -14 -11 -18 -12 -22 -1 -4 10 -8 10 -17 -2 -9 -13
-10 -12 -8 5 2 11 5 22 8 25 15 14 39 60 32 60 -5 0 -14 -11 -20 -25 -6 -14
-16 -25 -22 -25 -14 0 -13 17 3 23 6 3 -3 6 -20 6 -32 1 -43 14 -23 26 12 8
13 25 1 25 -5 0 -12 -11 -15 -25 -6 -25 -29 -34 -41 -15 -3 6 -12 10 -18 10
-7 0 -6 -4 3 -10 12 -8 11 -10 -7 -10 -12 0 -25 5 -28 10 -3 6 -13 10 -22 10
-11 0 -9 -5 8 -19 13 -10 34 -18 46 -16 13 1 23 -2 23 -8 0 -6 9 -2 20 8 13
12 20 14 20 5 0 -7 7 -10 15 -6 8 3 15 3 15 1 0 -10 -40 -69 -40 -60 0 6 -5 3
-10 -5 -7 -10 -10 -11 -10 -2 0 7 7 15 15 18 8 4 12 10 9 15 -3 5 0 9 6 9 6 0
8 5 4 12 -5 8 -15 3 -30 -15 -24 -28 -46 -39 -24 -12 7 9 10 19 6 22 -4 4 -10
3 -14 -3 -9 -13 -76 -18 -67 -4 3 5 -1 10 -9 10 -8 0 -17 -4 -20 -9 -4 -5 -21
-9 -39 -8 -22 2 -36 -4 -45 -18 -12 -19 -12 -18 -6 5 l6 25 -28 -25 c-16 -14
-32 -29 -36 -35 -5 -6 -8 -6 -8 2 0 6 9 18 21 27 l21 14 -24 13 c-19 10 -21
10 -12 -2 8 -11 6 -18 -8 -31 -10 -10 -18 -14 -18 -9 0 6 4 12 9 16 9 5 -33
55 -46 55 -3 0 -12 -8 -20 -17 -14 -17 -14 -17 -9 -1 3 10 2 17 -2 16 -4 -1
-19 4 -34 10 -33 13 -51 45 -44 75 3 12 3 17 0 11 -3 -7 -24 -10 -56 -8 -50 3
-50 3 -29 -15 11 -10 18 -21 15 -24 -3 -3 -18 5 -32 19 -15 13 -30 24 -35 24
-12 0 24 -50 44 -61 11 -5 19 -14 19 -20 0 -6 -19 8 -42 30 -24 22 -46 41 -50
41 -16 0 -7 19 10 22 15 3 14 6 -5 16 -19 11 -22 10 -17 -3 8 -21 -13 -19 -25
3 -9 15 -12 15 -21 2 -9 -13 -11 -13 -20 0 -14 22 -12 30 5 24 8 -4 15 -4 15
-1 0 3 -7 7 -15 11 -10 3 -30 -10 -56 -37 -23 -23 -38 -36 -34 -29 4 7 1 19
-5 27 -9 11 -9 15 -1 15 17 0 13 17 -6 25 -23 8 -67 -40 -58 -64 5 -12 3 -13
-6 -4 -9 9 -8 18 3 41 13 25 13 31 0 48 -14 18 -14 18 -8 -2 4 -14 -1 -26 -16
-40 l-23 -19 18 22 c18 21 18 22 -9 40 -20 13 -29 14 -32 5 -2 -6 -8 -12 -14
-12 -7 0 -7 4 -1 13 6 6 13 21 16 32 7 20 7 20 -8 1 -15 -19 -16 -19 -55 19
-22 22 -40 34 -40 27 0 -7 -9 -12 -20 -12 -11 0 -20 5 -20 11 0 5 5 7 10 4 6
-3 10 -1 10 5 0 7 -7 9 -17 6 -9 -4 -20 -2 -23 5 -5 7 -10 8 -14 1 -3 -6 0
-17 9 -25 13 -13 11 -15 -13 -14 -15 1 -30 6 -34 11 -4 6 -12 5 -20 -2 -11 -9
-13 -4 -13 23 1 28 -3 36 -27 46 -22 9 -27 16 -23 33 5 15 4 17 -3 7 -6 -8
-17 -11 -28 -7 -17 6 -17 6 -1 -12 23 -26 21 -39 -2 -18 -11 10 -24 16 -28 13
-5 -3 -15 3 -22 15 -11 18 -10 19 8 13 14 -4 23 0 32 17 11 21 11 22 -5 9 -15
-12 -19 -13 -26 -1 -7 11 -11 12 -25 0 -14 -12 -15 -10 -6 13 8 21 7 25 -4 20
-8 -3 -15 -9 -15 -14 0 -5 -12 -2 -27 8 -19 13 -28 14 -31 5 -2 -6 -9 -12 -15
-12 -8 0 -7 4 1 12 7 7 12 18 12 26 0 9 -7 6 -20 -9 -16 -20 -19 -20 -13 -5 5
15 3 18 -10 13 -10 -4 -14 -2 -12 6 6 15 -3 27 -39 55 -16 12 -24 22 -19 22 5
0 28 -18 51 -39 24 -23 44 -35 48 -30 4 6 18 -1 35 -17 16 -15 31 -25 34 -22
9 9 -55 69 -66 62 -5 -3 -27 9 -49 26 -34 27 -38 34 -29 52 6 11 8 22 6 25 -3
2 -8 -5 -12 -16 -3 -12 -13 -21 -22 -21 -13 0 -13 3 -3 15 8 9 9 15 2 15 -6 0
-14 -4 -17 -10 -4 -6 -11 -5 -19 3 -10 9 -11 14 -2 19 16 11 146 10 146 -1z
m-175 -19 c-3 -3 -11 0 -18 7 -9 10 -8 11 6 5 10 -3 15 -9 12 -12z m2819 -38
c-55 -26 -169 -58 -244 -68 -25 -3 10 10 77 29 67 19 137 41 155 49 56 24 66
16 12 -10z m716 -8 c0 -2 -8 -10 -17 -17 -16 -13 -17 -12 -4 4 13 16 21 21 21
13z m-2585 -41 c39 -13 61 -24 50 -24 -20 0 -149 47 -130 48 6 0 42 -11 80
-24z m-844 -37 c-11 -11 -13 -10 -7 0 4 7 2 21 -5 30 -12 15 -11 15 6 0 16
-15 17 -20 6 -30z m6035 -12 c30 -30 35 -41 33 -78 -3 -52 -17 -87 -29 -68 -4
7 -13 9 -20 5 -9 -6 -9 -10 1 -16 11 -8 10 -12 -5 -24 -44 -33 -121 -8 -152
50 -24 46 -13 95 32 134 49 44 95 42 140 -3z m-3631 14 c-11 -5 -29 -8 -40 -8
-16 0 -15 2 5 8 34 11 60 11 35 0z m-68 -16 c-3 -3 -12 -4 -19 -1 -8 3 -5 6 6
6 11 1 17 -2 13 -5z m-50 -10 c-3 -3 -12 -4 -19 -1 -8 3 -5 6 6 6 11 1 17 -2
13 -5z m1017 -10 c4 -9 4 -19 1 -22 -3 -3 -5 0 -5 7 0 8 -8 11 -20 8 -20 -5
-26 3 -13 16 12 12 31 7 37 -9z m-1079 -4 c-11 -5 -31 -8 -45 -8 l-25 0 25 8
c14 4 34 8 45 8 l20 1 -20 -9z m-3519 -18 c-8 -7 -1508 -4 -1515 4 -3 2 339 4
759 4 420 0 760 -4 756 -8z m1464 -54 c0 -12 -6 -9 -26 13 -19 22 -19 22 4 8
12 -8 22 -17 22 -21z m1213 25 c-7 -2 -19 -2 -25 0 -7 3 -2 5 12 5 14 0 19 -2
13 -5z m110 -10 c-13 -2 -33 -2 -45 0 -13 2 -3 4 22 4 25 0 35 -2 23 -4z
m1681 -16 c-2 -7 -14 -18 -25 -25 -19 -12 -20 -12 -3 13 17 26 37 35 28 12z
m50 5 c2 -4 -4 -8 -14 -8 -10 0 -16 4 -14 8 3 4 9 8 14 8 5 0 11 -4 14 -8z
m-3094 -6 c0 -3 -4 -8 -10 -11 -5 -3 -10 -1 -10 4 0 6 5 11 10 11 6 0 10 -2
10 -4z m94 -32 c5 -14 4 -15 -9 -4 -17 14 -19 20 -6 20 5 0 12 -7 15 -16z
m2876 6 c0 -5 -2 -10 -4 -10 -3 0 -8 5 -11 10 -3 6 -1 10 4 10 6 0 11 -4 11
-10z m-2815 -10 c3 -5 1 -10 -4 -10 -6 0 -11 5 -11 10 0 6 2 10 4 10 3 0 8 -4
11 -10z m243 -106 c7 -3 -11 -34 -20 -34 -5 0 -7 4 -4 9 8 12 -4 41 -16 41 -6
0 -8 -6 -5 -13 4 -10 -5 -13 -28 -13 -18 0 -31 4 -28 9 3 5 11 6 18 3 13 -5
35 12 35 27 0 5 -7 7 -15 3 -15 -5 -20 5 -8 17 4 4 20 -5 37 -20 17 -16 32
-28 34 -29z m2415 41 c-3 -9 -8 -14 -10 -11 -3 3 -2 9 2 15 9 16 15 13 8 -4z
m-27 -63 c-4 -3 -14 2 -24 12 -16 18 -16 18 6 6 13 -6 21 -14 18 -18z m-111
-17 c1 -15 -4 -21 -12 -18 -10 4 -11 9 -2 19 6 7 7 19 3 26 -4 8 -3 10 2 5 5
-5 9 -19 9 -32z m-2334 -8 c-10 -9 -11 -8 -5 6 3 10 9 15 12 12 3 -3 0 -11 -7
-18z m101 -7 c-12 -12 -22 -18 -22 -14 0 12 33 45 38 39 3 -3 -4 -14 -16 -25z
m118 0 c0 -5 -5 -10 -11 -10 -8 0 -8 -4 0 -14 9 -11 9 -16 0 -22 -8 -5 -9 -3
-4 6 6 10 4 12 -8 7 -14 -5 -15 -3 -5 18 11 25 28 34 28 15z m-160 -20 c0 -5
-2 -10 -4 -10 -3 0 -8 5 -11 10 -3 6 -1 10 4 10 6 0 11 -4 11 -10z m247 -4
c-7 -19 24 -31 35 -14 6 10 20 0 54 -36 25 -26 43 -51 40 -54 -3 -3 -14 4 -23
15 -10 11 -25 18 -33 15 -13 -5 -13 -3 -1 11 16 20 1 23 -18 5 -11 -11 -12 -9
-6 10 7 23 -9 32 -18 10 -4 -9 -8 -9 -14 -3 -11 14 -43 18 -43 6 0 -5 6 -11
12 -13 9 -3 8 -10 -5 -23 -15 -14 -21 -15 -27 -5 -4 7 -13 9 -19 6 -19 -12
-12 1 19 34 17 18 30 36 30 41 0 5 5 9 11 9 6 0 9 -6 6 -14z m2013 4 c8 -5 12
-11 10 -14 -3 -2 -14 2 -24 10 -22 15 -10 19 14 4z m-96 -31 c-19 -21 -33 -17
-16 4 7 8 9 17 5 21 -4 4 1 4 10 0 17 -6 17 -8 1 -25z m-104 -34 c-7 -9 -15
-13 -17 -11 -7 7 7 26 19 26 6 0 6 -6 -2 -15z m-1567 -1 c3 -3 3 -13 0 -21 -5
-12 -7 -12 -14 -1 -15 23 -4 40 14 22z m1537 -24 l13 -25 -20 20 c-11 11 -18
24 -16 28 6 10 7 9 23 -23z m-1710 -10 c0 -5 -2 -10 -4 -10 -3 0 -8 5 -11 10
-3 6 -1 10 4 10 6 0 11 -4 11 -10z m1148 -15 c-3 -3 -9 2 -12 12 -6 14 -5 15
5 6 7 -7 10 -15 7 -18z m-3553 5 c-3 -5 -12 -10 -18 -10 -7 0 -6 4 3 10 19 12
23 12 15 0z m153 3 c-10 -2 -26 -2 -35 0 -10 3 -2 5 17 5 19 0 27 -2 18 -5z
m-385 -10 c-13 -2 -33 -2 -45 0 -13 2 -3 4 22 4 25 0 35 -2 23 -4z m134 0
c-20 -2 -52 -2 -70 0 -17 2 0 4 38 4 39 0 53 -2 32 -4z m2359 -21 c-17 -16
-18 -16 -5 5 7 12 15 20 18 17 3 -2 -3 -12 -13 -22z m388 -41 c-9 -11 -21 13
-16 32 6 22 6 22 12 -3 4 -14 6 -27 4 -29z m54 13 c-7 -15 -14 -21 -16 -15 -2
6 -9 8 -14 5 -7 -4 -8 -2 -4 5 4 6 12 9 17 6 5 -4 9 3 9 15 0 12 4 19 10 15 6
-3 5 -15 -2 -31z m1373 9 c-12 -20 -14 -14 -5 12 4 9 9 14 11 11 3 -2 0 -13
-6 -23z m-980 -16 c-10 -9 -11 -8 -5 6 3 10 9 15 12 12 3 -3 0 -11 -7 -18z
m142 -2 c-21 -16 -26 -14 -17 8 3 9 12 13 20 10 12 -4 11 -8 -3 -18z m-673 11
c0 -2 -7 -7 -16 -10 -8 -3 -12 -2 -9 4 6 10 25 14 25 6z m170 0 c0 -3 -4 -8
-10 -11 -5 -3 -10 -1 -10 4 0 6 5 11 10 11 6 0 10 -2 10 -4z m113 -21 c-3 -9
-8 -14 -10 -11 -3 3 -2 9 2 15 9 16 15 13 8 -4z m134 -14 c0 -22 -3 -26 -13
-17 -9 8 -9 14 0 25 9 12 7 13 -12 9 -12 -4 -20 -2 -16 3 3 5 13 9 23 9 13 0
18 -8 18 -29z m-317 5 c0 -2 -9 -6 -20 -9 -11 -3 -20 -1 -20 4 0 5 9 9 20 9
11 0 20 -2 20 -4z m20 -16 c0 -5 -5 -10 -11 -10 -5 0 -7 5 -4 10 3 6 8 10 11
10 2 0 4 -4 4 -10z m773 -457 c-3 -258 -9 -472 -13 -476 -4 -4 -36 -5 -72 -1
l-65 6 -6 127 c-4 69 -7 179 -7 244 0 64 -3 117 -7 116 -9 0 -45 -48 -122
-162 -66 -96 -130 -166 -138 -149 -3 7 -37 54 -77 105 -40 51 -87 113 -105
140 -17 26 -36 47 -41 47 -6 0 -11 -99 -12 -237 -3 -231 -4 -238 -23 -237 -11
1 -43 2 -72 2 l-52 2 -3 438 c-2 240 -7 445 -12 455 -7 14 -3 17 18 17 18 0
30 -8 40 -27 8 -16 51 -68 95 -117 45 -48 118 -139 162 -202 45 -63 85 -114
89 -114 4 0 32 33 63 74 66 87 229 276 282 326 20 19 43 47 51 63 8 15 19 27
24 27 6 0 7 -175 3 -467z m-2853 440 c0 -9 16 -53 37 -98 42 -94 321 -673 364
-759 17 -32 29 -59 27 -60 -2 -1 -39 0 -83 2 l-81 4 -33 64 c-32 62 -100 156
-88 122 5 -14 -2 -18 -37 -23 -85 -13 -98 -7 -133 65 -18 36 -35 76 -38 90
l-6 25 75 -3 c72 -4 76 -3 76 17 0 27 -87 201 -100 201 -6 0 -10 -7 -10 -15 0
-25 -40 -97 -75 -136 -18 -20 -40 -58 -50 -85 -50 -135 -85 -224 -109 -275
l-27 -57 -80 2 c-46 0 -79 5 -79 11 0 9 55 134 140 320 71 153 296 605 303
605 4 0 7 -8 7 -17z m1648 -128 c24 -55 83 -183 129 -285 47 -102 100 -219
118 -260 18 -41 51 -112 74 -157 22 -46 41 -85 41 -88 0 -3 -36 -5 -80 -5 -88
0 -78 -6 -143 94 -36 55 -44 61 -103 76 -37 9 -47 19 -95 92 -30 45 -55 86
-57 90 -2 4 29 8 68 8 70 0 72 1 66 23 -9 38 -75 177 -83 177 -5 0 -19 -22
-32 -48 -13 -27 -36 -63 -52 -82 -16 -18 -29 -38 -29 -45 0 -27 -40 -135 -83
-225 -25 -52 -51 -110 -58 -128 l-12 -33 -78 3 c-46 2 -79 7 -79 13 0 26 179
425 313 698 96 198 113 226 120 205 5 -12 30 -68 55 -123z m1172 141 c0 -3 -4
-8 -10 -11 -5 -3 -10 -1 -10 4 0 6 5 11 10 11 6 0 10 -2 10 -4z m882 -63 c128
-134 314 -359 368 -446 24 -37 45 -66 47 -63 2 2 1 123 -3 270 -5 188 -10 263
-18 259 -6 -3 -8 -3 -4 1 3 4 30 9 60 12 29 2 62 5 73 6 17 3 21 -5 27 -52 3
-30 6 -236 7 -457 1 -380 0 -403 -17 -403 -10 0 -28 7 -40 16 -36 25 -162 180
-325 399 -89 120 -122 144 -106 78 5 -21 9 -138 9 -260 l0 -221 -65 -4 c-50
-2 -66 0 -71 12 -4 8 -7 208 -9 444 -1 319 -5 431 -13 434 -7 2 -12 10 -12 18
0 30 39 12 92 -43z m1618 36 c140 -1 268 -4 285 -8 26 -5 34 -16 59 -78 16
-40 27 -75 25 -78 -3 -3 -125 -8 -270 -11 l-264 -7 -51 59 c-58 68 -104 128
-104 137 0 3 15 1 32 -4 18 -5 148 -10 288 -10z m-459 -25 c48 -33 103 -97
118 -137 12 -32 13 -313 2 -485 -7 -112 -7 -112 -44 -150 -20 -21 -62 -53 -94
-72 l-57 -35 -225 0 -226 0 2 343 c1 189 4 346 7 350 3 3 14 -2 23 -10 10 -9
39 -25 66 -36 l47 -21 2 -148 c1 -81 0 -183 -1 -225 l-3 -78 146 0 c185 0 200
6 209 82 4 29 7 139 7 243 0 240 2 235 -113 234 -135 -1 -258 -14 -267 -29 -7
-11 -11 -11 -25 0 -26 21 -145 182 -145 195 0 9 65 12 265 10 l266 -3 40 -28z
m1653 28 c5 -9 -91 -149 -222 -324 -76 -101 -83 -114 -73 -136 18 -39 236
-366 271 -405 17 -19 27 -37 23 -39 -4 -3 -47 -3 -94 0 l-86 4 -109 155 -109
156 -43 -49 c-24 -27 -76 -97 -115 -156 l-72 -108 -72 0 c-39 0 -78 -3 -87 -6
-9 -3 -16 -1 -16 5 0 23 249 383 292 422 10 9 18 22 18 28 0 13 -89 137 -155
216 -34 42 -131 177 -159 223 -5 9 15 12 93 12 l99 0 104 -137 c57 -75 108
-138 113 -140 11 -3 95 100 168 207 l44 65 69 6 c38 3 79 6 91 7 12 1 24 -2
27 -6z m-7113 -31 c25 -15 60 -46 77 -67 l32 -39 0 -119 0 -119 -40 -37 -40
-37 31 -29 c52 -49 59 -72 59 -198 0 -114 0 -116 -30 -150 -17 -19 -50 -44
-74 -55 -39 -20 -60 -21 -306 -21 l-263 0 6 194 c5 176 0 269 -19 335 -6 20
-4 22 13 17 19 -6 20 -4 11 51 -5 31 -8 68 -6 81 l3 24 29 -23 c15 -12 47 -32
70 -43 34 -17 42 -27 46 -56 l5 -35 164 -3 c112 -2 168 1 177 9 10 8 14 35 14
90 0 77 -1 79 -27 85 -15 4 -105 2 -199 -5 -126 -8 -178 -9 -196 0 -29 13
-170 164 -161 173 4 3 135 6 293 6 l286 0 45 -29z m1223 -79 c4 -60 6 -142 5
-183 -2 -52 1 -74 9 -73 7 1 86 2 177 3 l166 1 -3 180 -3 180 78 0 77 0 0
-448 c0 -247 -2 -451 -4 -453 -2 -2 -36 -3 -75 -1 l-71 4 0 184 0 184 -175 0
-175 0 0 -57 c0 -32 -3 -115 -7 -185 l-6 -128 -73 0 -73 0 0 428 c0 235 -3
435 -6 444 -7 18 13 22 111 26 l41 2 7 -108z m4533 -133 l44 -12 -3 -56 -3
-56 202 -5 202 -5 -47 -61 c-26 -34 -52 -70 -58 -79 -9 -16 -29 -19 -146 -23
l-135 -5 -7 -89 c-4 -50 -4 -93 -1 -97 4 -3 110 -6 236 -6 l229 0 0 -85 0 -85
-306 0 -306 0 5 320 c3 176 9 330 13 343 4 15 12 21 22 17 8 -3 34 -10 59 -16z
m-2800 -901 c-3 -7 -5 -2 -5 12 0 14 2 19 5 13 2 -7 2 -19 0 -25z m425 -119
c7 -98 3 -113 -28 -107 -34 6 -48 163 -18 193 29 29 39 11 46 -86z m1410 59
c3 -42 4 -43 40 -46 36 -3 37 -3 43 42 4 27 13 46 20 46 17 0 25 -46 25 -136
0 -67 -2 -74 -20 -74 -17 0 -20 7 -20 39 0 43 -15 55 -55 45 -19 -5 -25 -14
-27 -42 -2 -29 -7 -37 -23 -37 -18 0 -20 8 -23 89 -3 98 0 116 22 116 10 0 16
-13 18 -42z m-2565 -45 c-5 -68 -9 -81 -33 -101 -19 -17 -36 -22 -62 -20 -51
4 -71 37 -74 118 -3 59 -1 65 17 65 17 0 21 -8 25 -62 6 -71 18 -88 54 -79 24
6 26 11 28 59 2 76 2 77 18 87 29 19 33 9 27 -67z m371 55 c-2 -15 -13 -25
-33 -31 -31 -9 -31 -9 -27 -71 4 -59 3 -63 -19 -69 -30 -8 -39 6 -39 61 0 62
-28 108 -57 97 -7 -2 -13 -1 -13 4 0 14 63 29 128 30 60 1 63 0 60 -21z m194
-50 l3 -73 40 0 40 0 9 73 c8 62 12 72 29 72 18 0 19 -5 14 -69 -3 -39 -10
-79 -16 -89 -23 -43 -121 -53 -152 -16 -7 8 -14 51 -17 95 l-5 79 26 0 c25 0
26 -2 29 -72z m402 51 c32 -25 34 -62 4 -83 -20 -15 -21 -18 -9 -52 18 -50 5
-56 -31 -11 -16 20 -34 37 -39 37 -4 0 -11 -16 -15 -35 -6 -36 -27 -47 -38
-19 -3 9 -6 54 -6 100 l0 84 54 0 c39 0 60 -6 80 -21z m420 -1 c24 -34 20 -40
-28 -33 -38 6 -46 4 -60 -16 -36 -52 -7 -84 65 -73 45 7 46 2 11 -38 -38 -45
-135 -1 -148 67 -7 41 8 70 49 95 44 27 92 26 111 -2z m986 2 c25 -25 18 -45
-10 -30 -41 22 -90 -2 -90 -45 0 -37 33 -58 79 -50 37 6 41 5 41 -14 0 -39
-75 -55 -118 -25 -26 18 -52 64 -52 92 0 11 10 32 21 46 38 48 96 59 129 26z
m-2690 -16 c0 -24 -2 -25 -40 -19 -45 8 -62 1 -53 -21 4 -12 8 -13 13 -4 9 14
75 6 85 -10 12 -19 8 -82 -6 -91 -21 -13 -94 -22 -118 -14 -19 6 -21 14 -21
96 l0 89 70 0 c69 0 70 -1 70 -26z m2160 11 c0 -9 -12 -18 -30 -21 -29 -6 -30
-9 -30 -58 0 -70 -9 -96 -31 -96 -17 0 -19 8 -19 75 l0 75 -30 0 c-23 0 -30 4
-30 20 0 18 7 20 85 20 70 0 85 -3 85 -15z m250 1 c0 -17 -22 -26 -61 -26 -19
0 -29 -5 -29 -15 0 -11 12 -15 44 -15 46 0 69 -16 45 -31 -8 -5 -31 -9 -51 -9
-32 0 -38 -3 -38 -21 0 -18 5 -20 38 -18 56 3 62 1 62 -21 0 -19 -5 -21 -72
-18 l-73 3 -3 93 -3 92 71 0 c53 0 70 -3 70 -14z m3470 -271 c0 -12 -247 234
-255 255 -3 8 53 -43 125 -115 71 -71 130 -134 130 -140z m-6250 195 c0 -6
-55 -10 -142 -11 -79 0 -249 -3 -378 -5 -129 -3 -231 -1 -226 3 7 7 173 12
629 21 73 1 117 -2 117 -8z m4349 -6 c2 -2 -63 -4 -145 -4 -82 0 -256 -3 -386
-7 -222 -6 -238 -5 -238 11 0 17 23 17 383 11 210 -4 384 -9 386 -11z m-6501
-4 c-4 -11 -154 -164 -260 -265 -154 -147 -125 -111 62 78 107 107 197 196
198 196 2 1 2 -3 0 -9z m3119 -748 c-1 -114 -2 -20 -2 208 0 228 1 322 2 207
2 -114 2 -300 0 -415z m460 511 c-3 -10 -5 -4 -5 12 0 17 2 24 5 18 2 -7 2
-21 0 -30z m-210 -5 c-3 -7 -5 -2 -5 12 0 14 2 19 5 13 2 -7 2 -19 0 -25z
m4707 -177 c-6 -6 -48 35 -117 114 -58 67 -57 66 30 -20 50 -49 89 -92 87 -94z
m436 124 c19 -19 32 -35 29 -35 -3 0 -20 16 -39 35 -19 19 -32 35 -29 35 3 0
20 -16 39 -35z m-4943 -327 c-1 -62 -3 -12 -3 112 0 124 2 174 3 113 2 -62 2
-164 0 -225z m-200 0 c-1 -62 -3 -14 -3 107 0 121 2 172 3 113 2 -59 2 -158 0
-220z m4740 -351 c-1 -89 -3 -13 -3 168 0 182 2 254 3 162 2 -93 2 -241 0
-330z m-4540 201 c-3 -8 -6 -5 -6 6 -1 11 2 17 5 13 3 -3 4 -12 1 -19z"/>
<path d="M4886 8717 c3 -10 9 -15 12 -12 3 3 0 11 -7 18 -10 9 -11 8 -5 -6z"/>
<path d="M5180 8690 c0 -5 5 -10 10 -10 6 0 10 5 10 10 0 6 -4 10 -10 10 -5 0
-10 -4 -10 -10z"/>
<path d="M4491 8632 c-17 -31 -13 -40 5 -14 9 13 14 26 11 29 -3 2 -10 -4 -16
-15z"/>
<path d="M4360 8631 c0 -5 6 -11 13 -14 9 -3 9 -8 -2 -21 -8 -9 -12 -19 -9
-22 3 -2 13 7 23 22 14 22 15 28 4 35 -18 11 -29 11 -29 0z"/>
<path d="M4415 8629 c-11 -17 1 -21 15 -4 8 9 8 15 2 15 -6 0 -14 -5 -17 -11z"/>
<path d="M4256 8594 c-9 -22 -9 -22 19 -20 29 1 30 3 11 22 -18 18 -22 18 -30
-2z"/>
<path d="M5263 8603 c15 -2 37 -2 50 0 12 2 0 4 -28 4 -27 0 -38 -2 -22 -4z"/>
<path d="M5395 8588 c33 -5 119 -18 190 -29 144 -22 356 -75 483 -120 95 -33
96 -33 86 -16 -4 6 1 5 12 -5 10 -9 48 -28 84 -43 168 -70 378 -192 430 -250
43 -48 95 -75 130 -69 36 8 37 14 8 41 -65 57 -456 267 -481 257 -9 -3 -23 3
-34 15 -10 13 -30 21 -48 21 -24 0 -27 2 -15 11 12 9 11 10 -7 6 -13 -3 -23
-1 -23 3 0 13 -74 38 -205 69 -66 16 -174 43 -240 60 -151 39 -287 61 -367 60
l-63 -2 60 -9z"/>
<path d="M4888 8583 c6 -2 18 -2 25 0 6 3 1 5 -13 5 -14 0 -19 -2 -12 -5z"/>
<path d="M3900 8464 c0 -13 18 -39 24 -34 2 3 -2 14 -10 24 -8 11 -14 16 -14
10z"/>
<path d="M3930 8461 c0 -5 7 -15 17 -22 15 -13 15 -12 4 9 -12 23 -21 28 -21
13z"/>
<path d="M3879 8433 c0 -5 -2 -16 -4 -26 -2 -9 1 -15 6 -11 5 3 7 10 4 15 -4
5 -1 9 4 9 6 0 11 5 11 10 0 11 -20 14 -21 3z"/>
<path d="M6460 8398 c0 -19 2 -20 10 -8 13 19 13 30 0 30 -5 0 -10 -10 -10
-22z"/>
<path d="M6520 8378 c0 -19 2 -20 10 -8 13 19 13 30 0 30 -5 0 -10 -10 -10
-22z"/>
<path d="M6580 8370 c0 -5 5 -10 10 -10 6 0 10 5 10 10 0 6 -4 10 -10 10 -5 0
-10 -4 -10 -10z"/>
<path d="M6601 8352 c-7 -13 -11 -28 -8 -35 2 -7 9 -2 16 11 7 13 11 28 8 35
-2 7 -9 2 -16 -11z"/>
<path d="M3673 8323 c0 -8 4 -9 11 -4 6 5 20 11 31 14 12 3 8 5 -11 4 -18 -1
-31 -6 -31 -14z"/>
<path d="M6570 8290 c0 -5 5 -10 10 -10 6 0 10 5 10 10 0 6 -4 10 -10 10 -5 0
-10 -4 -10 -10z"/>
<path d="M3713 8220 c-113 -59 -251 -139 -259 -151 -3 -5 19 -9 49 -9 52 0 56
2 88 41 31 39 123 105 197 143 30 15 42 28 25 25 -5 -1 -49 -23 -100 -49z"/>
<path d="M6639 8253 c-13 -16 -12 -17 4 -4 9 7 17 15 17 17 0 8 -8 3 -21 -13z"/>
<path d="M3400 8210 c0 -5 7 -10 15 -10 8 0 15 5 15 10 0 6 -7 10 -15 10 -8 0
-15 -4 -15 -10z"/>
<path d="M3510 8200 c0 -5 5 -10 11 -10 5 0 7 5 4 10 -3 6 -8 10 -11 10 -2 0
-4 -4 -4 -10z"/>
<path d="M3280 8140 c0 -11 -5 -20 -12 -20 -6 0 -8 -3 -4 -7 4 -5 14 1 22 11
16 23 18 36 4 36 -5 0 -10 -9 -10 -20z"/>
<path d="M3311 8133 c-13 -28 -13 -28 8 -9 22 20 27 36 13 36 -5 0 -14 -12
-21 -27z"/>
<path d="M3347 8130 c-20 -24 -22 -34 -4 -23 6 4 18 8 26 8 8 0 15 6 17 13 1
7 0 8 -3 2 -8 -16 -26 -12 -19 5 7 20 4 19 -17 -5z"/>
<path d="M6902 8138 c3 -7 19 -21 36 -31 27 -16 31 -16 26 -3 -3 8 -14 18 -25
21 -10 4 -19 11 -19 16 0 5 -5 9 -11 9 -6 0 -9 -6 -7 -12z"/>
<path d="M3413 8125 c-19 -21 -16 -27 7 -13 11 7 20 16 20 20 0 12 -14 9 -27
-7z"/>
<path d="M4521 8074 c-27 -34 -26 -48 1 -74 41 -38 108 -14 108 39 0 59 -72
82 -109 35z"/>
<path d="M5711 8074 c-27 -34 -26 -40 4 -69 29 -30 58 -32 85 -5 24 24 25 48
4 78 -22 31 -67 29 -93 -4z"/>
<path d="M1910 9130 c0 -5 5 -10 11 -10 5 0 7 5 4 10 -3 6 -8 10 -11 10 -2 0
-4 -4 -4 -10z"/>
<path d="M6678 9579 c-29 -16 -23 -73 9 -98 42 -34 93 -7 93 49 0 49 -57 76
-102 49z"/>
<path d="M5120 8180 c-25 -25 -25 -51 -2 -78 29 -35 67 -38 96 -8 31 30 33 55
6 84 -26 28 -73 29 -100 2z"/>
<path d="M3255 7760 l-589 -5 54 -47 c30 -25 299 -295 597 -600 298 -304 686
-697 862 -873 177 -176 320 -323 319 -326 -10 -25 -302 -325 -803 -824 -320
-319 -611 -611 -645 -650 -34 -38 -132 -141 -218 -228 -85 -87 -153 -159 -150
-162 2 -2 278 -5 614 -5 l609 -2 50 58 c28 31 122 129 210 215 454 449 617
612 792 793 l191 197 609 -604 c334 -332 624 -617 643 -633 l35 -29 608 3 609
2 -58 53 c-66 60 -169 167 -341 352 -67 72 -251 258 -409 415 -523 517 -658
653 -963 972 l-73 77 423 425 c233 233 562 565 731 737 169 173 391 398 493
502 l187 187 -579 1 c-318 1 -588 2 -600 3 -17 1 -168 -143 -625 -599 -332
-330 -622 -617 -644 -638 l-41 -38 -64 66 c-35 37 -272 275 -527 528 -558 557
-654 653 -665 672 -4 8 -18 14 -30 13 -12 -2 -287 -5 -612 -8z m3569 -151 c37
-43 34 -83 -8 -125 -33 -33 -34 -34 -69 -19 -35 15 -35 14 -67 -23 -18 -20
-69 -75 -114 -122 -45 -47 -100 -106 -122 -131 l-41 -45 -5 -132 c-6 -138 -1
-187 19 -187 6 0 139 128 294 284 293 294 294 295 323 248 9 -15 -13 -41 -144
-168 -85 -82 -221 -216 -302 -296 -147 -145 -147 -146 -185 -140 -37 6 -39 5
-55 -32 -10 -22 -52 -81 -94 -133 -89 -108 -509 -528 -528 -528 -7 0 -21 9
-30 19 -17 18 -15 21 26 57 52 46 234 230 343 348 44 47 126 134 182 193 57
60 103 112 103 116 0 5 -8 6 -18 3 -18 -6 -19 5 -25 176 l-6 181 67 76 c192
218 388 411 418 411 7 0 24 -14 38 -31z m-3247 4 c14 -9 33 -29 42 -43 9 -15
48 -52 86 -84 75 -63 125 -113 214 -216 30 -36 69 -77 84 -92 28 -26 28 -28
18 -80 -9 -46 -16 -197 -12 -266 1 -22 4 -24 56 -20 31 1 57 -1 59 -7 2 -5 7
-6 12 -2 5 5 9 122 10 260 0 139 4 251 7 250 4 -2 14 -3 22 -3 8 0 19 -16 24
-38 12 -42 31 -280 31 -383 l0 -65 45 -22 c25 -12 84 -57 132 -101 140 -126
363 -350 363 -365 0 -21 -69 -78 -90 -74 -16 3 -230 218 -422 426 -32 34 -70
65 -84 68 -30 8 -265 -2 -301 -12 -17 -5 -23 -2 -23 11 0 9 -127 145 -282 301
-156 157 -283 290 -283 297 0 6 10 17 23 23 21 11 28 7 70 -39 26 -28 76 -79
112 -113 231 -221 341 -339 364 -386 l17 -38 63 0 c59 0 63 1 60 23 -1 12 -3
32 -3 45 -1 15 -7 22 -20 22 -25 0 -32 33 -33 146 -1 100 12 79 -170 272 -54
57 -106 117 -115 133 -12 19 -23 27 -33 23 -61 -23 -109 -12 -129 33 -20 44
-13 79 20 107 36 31 33 30 66 9z m-257 -113 c0 -5 -5 -10 -11 -10 -5 0 -7 5
-4 10 3 6 8 10 11 10 2 0 4 -4 4 -10z m40 0 c0 -5 -2 -10 -4 -10 -3 0 -8 5
-11 10 -3 6 -1 10 4 10 6 0 11 -4 11 -10z m-90 -10 c0 -5 -2 -10 -4 -10 -3 0
-8 5 -11 10 -3 6 -1 10 4 10 6 0 11 -4 11 -10z m-170 -10 c0 -5 -5 -10 -11
-10 -5 0 -7 5 -4 10 3 6 8 10 11 10 2 0 4 -4 4 -10z m32 -12 c-7 -7 -12 -8
-12 -2 0 14 12 26 19 19 2 -3 -1 -11 -7 -17z m48 12 c0 -5 -4 -10 -10 -10 -5
0 -10 5 -10 10 0 6 5 10 10 10 6 0 10 -4 10 -10z m187 -55 c0 -8 -4 -12 -9 -9
-4 3 -8 9 -8 15 0 5 4 9 8 9 5 0 9 -7 9 -15z m3063 -5 c0 -5 -5 -10 -11 -10
-5 0 -7 5 -4 10 3 6 8 10 11 10 2 0 4 -4 4 -10z m-3190 -22 c0 -7 -5 -20 -10
-28 -8 -12 -10 -9 -10 13 0 15 5 27 10 27 6 0 10 -6 10 -12z m3200 -12 c0 -3
-4 -8 -10 -11 -5 -3 -10 -1 -10 4 0 6 5 11 10 11 6 0 10 -2 10 -4z m680 -20
c0 -2 -7 -7 -16 -10 -8 -3 -12 -2 -9 4 6 10 25 14 25 6z m-3665 -75 c-6 -5
-25 10 -25 20 0 5 6 4 14 -3 8 -7 12 -15 11 -17z m55 -1 c0 -5 -2 -10 -4 -10
-3 0 -8 5 -11 10 -3 6 -1 10 4 10 6 0 11 -4 11 -10z m-30 -10 c0 -5 -5 -10
-11 -10 -5 0 -7 5 -4 10 3 6 8 10 11 10 2 0 4 -4 4 -10z m605 0 c-3 -5 -12
-10 -18 -10 -7 0 -6 4 3 10 19 12 23 12 15 0z m2078 -78 c3 -23 1 -40 -4 -37
-5 4 -8 -77 -6 -189 l2 -196 -37 -30 c-20 -16 -93 -92 -161 -168 -69 -75 -171
-184 -226 -241 l-101 -105 -22 22 c-13 11 -32 37 -42 56 l-19 36 53 57 c30 32
101 103 159 159 57 56 100 103 95 106 -5 3 -4 4 2 2 17 -4 75 60 71 77 -2 8
-2 11 0 6 8 -13 22 3 17 18 -3 8 1 21 9 30 23 22 33 18 12 -5 -10 -11 -15 -23
-11 -28 4 -4 14 1 21 11 7 10 26 22 41 26 24 6 31 16 47 70 17 59 17 64 1 75
-13 10 -14 15 -4 21 9 6 11 4 5 -5 -5 -8 -3 -11 6 -8 8 3 15 15 17 29 2 19 1
21 -7 9 -7 -9 -11 -10 -11 -3 0 7 7 16 15 20 10 6 16 27 17 61 2 36 7 52 17
52 10 0 12 9 7 35 -5 26 -4 33 6 30 10 -4 13 7 11 42 -4 57 11 32 20 -35z
m-2639 32 c3 -8 2 -12 -4 -9 -6 3 -10 10 -10 16 0 14 7 11 14 -7z m176 -8 c0
-3 -4 -8 -10 -11 -5 -3 -10 -1 -10 4 0 6 5 11 10 11 6 0 10 -2 10 -4z m-145
-16 c3 -5 1 -10 -4 -10 -6 0 -11 5 -11 10 0 6 2 10 4 10 3 0 8 -4 11 -10z
m3209 -15 c-4 -8 -11 -15 -16 -15 -6 0 -5 6 2 15 7 8 14 15 16 15 2 0 1 -7 -2
-15z m-144 -25 c0 -5 -4 -10 -10 -10 -5 0 -10 5 -10 10 0 6 5 10 10 10 6 0 10
-4 10 -10z m67 -55 c-23 -22 -33 -18 -12 5 10 11 20 18 23 16 2 -3 -3 -12 -11
-21z m-627 -55 c0 -5 -5 -10 -11 -10 -5 0 -7 5 -4 10 3 6 8 10 11 10 2 0 4 -4
4 -10z m544 -6 c4 -10 1 -14 -6 -12 -15 5 -23 28 -10 28 5 0 13 -7 16 -16z
m-2718 -34 c9 0 12 -4 9 -10 -12 -19 -35 -10 -34 13 0 12 3 16 6 10 2 -7 11
-13 19 -13z m2115 3 c13 -16 12 -17 -3 -4 -10 7 -18 15 -18 17 0 8 8 3 21 -13z
m-27 -15 c8 -13 -33 -60 -216 -250 -125 -128 -248 -253 -275 -278 -27 -25 -56
-56 -65 -69 -16 -23 -18 -23 -42 -7 -15 9 -26 20 -26 24 0 6 529 542 582 589
16 15 28 12 42 -9z m-1531 -70 c215 -216 366 -358 379 -355 7 2 9 2 4 -1 -5
-3 29 -40 75 -83 l84 -77 -25 -26 -25 -25 -300 294 c-165 162 -308 295 -317
295 -10 0 -18 5 -18 11 0 5 4 8 9 5 5 -3 12 5 15 19 4 14 13 25 22 25 8 0 52
-37 97 -82z m2132 72 c3 -5 1 -10 -4 -10 -6 0 -11 5 -11 10 0 6 2 10 4 10 3 0
8 -4 11 -10z m-15 -30 c0 -5 -2 -10 -4 -10 -3 0 -8 5 -11 10 -3 6 -1 10 4 10
6 0 11 -4 11 -10z m-40 -34 c0 -3 -4 -8 -10 -11 -5 -3 -10 -1 -10 4 0 6 5 11
10 11 6 0 10 -2 10 -4z m-39 -53 c-12 -20 -14 -14 -5 12 4 9 9 14 11 11 3 -2
0 -13 -6 -23z m-2504 -45 c1 -27 -1 -29 -7 -13 -11 27 -12 45 -2 45 5 0 9 -15
9 -32z m2023 -18 c0 -5 -2 -10 -4 -10 -3 0 -8 5 -11 10 -3 6 -1 10 4 10 6 0
11 -4 11 -10z m-1574 -105 c9 -8 11 -15 6 -15 -5 0 -15 7 -22 15 -7 8 -9 15
-6 15 4 0 14 -7 22 -15z m-405 -23 c61 -40 296 -269 527 -512 78 -82 98 -119
71 -136 -11 -6 -554 540 -611 615 -41 53 -36 66 13 33z m1857 4 c-7 -8 -15
-12 -17 -11 -5 6 10 25 20 25 5 0 4 -6 -3 -14z m362 -16 c0 -5 -2 -10 -4 -10
-2 0 -12 -3 -22 -7 -16 -6 -17 -5 -4 10 17 19 30 22 30 7z m-465 -80 c-10 -11
-22 -20 -27 -20 -5 0 2 11 14 24 28 28 39 25 13 -4z m382 8 c-3 -8 -6 -5 -6 6
-1 11 2 17 5 13 3 -3 4 -12 1 -19z m-1237 -82 c0 -3 -4 -8 -10 -11 -5 -3 -10
-1 -10 4 0 6 5 11 10 11 6 0 10 -2 10 -4z m1455 -16 c3 -5 1 -10 -4 -10 -6 0
-11 5 -11 10 0 6 2 10 4 10 3 0 8 -4 11 -10z m-921 -341 c36 -39 66 -75 66
-79 0 -4 -21 -25 -47 -46 -120 -97 -202 -194 -164 -194 7 0 72 -64 180 -176
11 -12 7 -21 -26 -57 -21 -23 -46 -53 -55 -66 l-17 -24 -41 28 c-22 15 -74 63
-115 107 l-76 79 -38 -30 c-21 -17 -69 -65 -106 -107 l-69 -77 -62 69 -62 69
46 55 c25 30 68 78 95 107 l50 52 -39 48 c-21 26 -69 78 -106 115 l-68 67 33
22 c17 12 49 38 69 57 l37 35 20 -24 c42 -53 173 -162 180 -150 4 6 15 9 24 5
11 -4 38 13 84 55 37 34 71 61 75 61 3 0 16 16 28 35 12 19 25 35 30 35 4 0
38 -32 74 -71z m-241 -74 c-15 -19 -30 -35 -33 -35 -3 0 -13 9 -23 20 -14 17
-14 20 -2 20 8 0 15 -7 15 -15 0 -8 5 -15 10 -15 14 0 13 23 -2 38 -9 9 -9 12
0 12 7 0 12 -5 12 -11 0 -5 10 -3 22 5 32 23 32 20 1 -19z m-73 -19 c0 -3 -4
-8 -10 -11 -5 -3 -10 -1 -10 4 0 6 5 11 10 11 6 0 10 -2 10 -4z m-350 -176 c0
-5 -4 -10 -10 -10 -5 0 -10 5 -10 10 0 6 5 10 10 10 6 0 10 -4 10 -10z m-180
-159 c16 -31 12 -59 -9 -66 -11 -3 -34 -23 -52 -43 -17 -20 -145 -152 -284
-292 -139 -140 -257 -265 -264 -277 -7 -13 -11 -82 -11 -182 0 -138 2 -161 16
-169 14 -8 5 -24 -62 -102 -43 -51 -120 -131 -171 -177 l-92 -84 -11 39 -10
40 63 64 c82 81 170 185 179 208 4 10 8 100 9 199 l2 181 314 317 c173 175
322 328 330 341 19 27 39 28 53 3z m1435 -309 c173 -175 322 -329 333 -342 17
-22 19 -45 21 -199 l2 -175 126 -139 c99 -111 124 -144 119 -161 -3 -11 -6
-29 -6 -39 0 -17 -3 -16 -32 4 -18 13 -92 83 -165 157 l-132 133 6 192 5 192
-74 85 c-41 47 -115 123 -164 170 -116 111 -394 400 -394 409 0 10 22 31 32
31 5 0 150 -143 323 -318z m-1321 89 l48 -49 -83 -88 c-189 -200 -228 -239
-312 -312 -48 -42 -96 -80 -105 -83 -21 -7 -57 -181 -74 -361 -7 -71 -15 -128
-19 -128 -4 0 -12 7 -19 15 -10 12 -13 73 -11 258 l3 242 61 61 c34 33 94 96
132 139 39 43 107 117 152 164 46 47 102 109 125 138 24 29 45 52 48 53 3 0
27 -22 54 -49z m952 11 c21 -36 254 -285 401 -429 l73 -71 -14 -169 c-7 -92
-14 -156 -15 -141 0 15 -5 30 -11 33 -5 3 -10 19 -10 34 0 15 -7 36 -15 47 -8
10 -15 38 -15 62 0 28 -5 45 -15 48 -8 4 -15 14 -15 24 0 10 -15 30 -32 45
-74 61 -375 354 -420 409 l-49 59 48 43 c26 24 53 43 58 43 6 1 20 -16 31 -37z
m-718 -160 c3 -11 -603 -622 -617 -622 -8 0 -34 40 -29 45 2 2 138 141 303
309 273 277 302 303 319 292 11 -7 22 -18 24 -24z m495 -25 c79 -80 382 -392
469 -484 43 -45 80 -93 84 -107 17 -69 -30 -30 -347 289 -286 287 -323 327
-309 340 25 26 49 17 103 -38z m-1603 -388 c0 -5 -4 -9 -8 -9 -12 0 -316 -308
-440 -445 -61 -68 -64 -69 -78 -50 -38 50 -38 51 33 112 38 32 153 142 257
244 185 183 190 187 213 172 13 -8 23 -19 23 -24z m2762 -62 c45 -46 148 -146
228 -222 188 -180 201 -196 184 -219 -12 -17 -14 -17 -41 3 -53 41 -493 485
-493 497 0 11 14 21 32 23 3 1 44 -36 90 -82z m-2732 -201 c0 -3 -4 -8 -10
-11 -5 -3 -10 -1 -10 4 0 6 5 11 10 11 6 0 10 -2 10 -4z m2943 -297 c35 -16
51 -51 43 -93 -7 -39 -29 -56 -72 -56 -41 0 -102 21 -109 38 -10 25 28 86 65
104 41 21 42 21 73 7z m-3218 -28 c38 -22 45 -73 16 -111 -17 -21 -28 -25 -72
-24 -61 1 -79 18 -79 76 0 28 7 46 26 64 28 29 53 27 109 -5z m-22 -158 c-13
-2 -33 -2 -45 0 -13 2 -3 4 22 4 25 0 35 -2 23 -4z"/>
<path d="M3558 7478 c9 -9 15 -9 24 0 9 9 7 12 -12 12 -19 0 -21 -3 -12 -12z"/>
<path d="M7680 4186 c28 -37 60 -69 60 -59 0 5 -17 25 -37 44 -20 18 -31 25
-23 15z"/>
<path d="M7585 4130 c3 -5 8 -10 11 -10 2 0 4 5 4 10 0 6 -5 10 -11 10 -5 0
-7 -4 -4 -10z"/>
<path d="M7680 4109 c0 -5 5 -7 10 -4 6 3 10 8 10 11 0 2 -4 4 -10 4 -5 0 -10
-5 -10 -11z"/>
<path d="M7720 4101 c0 -9 30 -24 36 -18 2 1 -6 8 -16 15 -11 7 -20 8 -20 3z"/>
<path d="M7770 4086 c0 -17 -65 -86 -81 -86 -5 0 -9 -4 -9 -9 0 -5 -16 -15
-35 -22 -25 -9 -32 -16 -24 -25 14 -16 -4 -27 -61 -35 -38 -5 -33 -6 30 -7 41
0 113 3 160 6 l85 7 5 59 c6 60 0 73 -53 115 -15 12 -17 11 -17 -3z m57 -53
c16 -13 15 -13 -8 0 -23 14 -28 14 -43 1 -9 -8 -11 -9 -6 -2 6 7 10 21 10 33
1 19 1 19 15 2 7 -10 22 -25 32 -34z"/>
<path d="M7620 4010 c0 -5 7 -7 15 -4 8 4 15 8 15 10 0 2 -7 4 -15 4 -8 0 -15
-4 -15 -10z"/>
<path d="M7850 7190 c0 -25 16 -44 25 -30 4 7 0 19 -9 28 -13 14 -16 14 -16 2z"/>
<path d="M7880 7135 c0 -20 22 -65 32 -65 12 0 9 12 -7 33 -7 11 -11 25 -8 33
3 8 0 14 -6 14 -6 0 -11 -7 -11 -15z"/>
<path d="M7986 7045 c-3 -8 -1 -15 4 -15 13 0 22 18 11 24 -5 3 -11 -1 -15 -9z"/>
<path d="M8255 6030 c3 -5 8 -10 11 -10 2 0 4 5 4 10 0 6 -5 10 -11 10 -5 0
-7 -4 -4 -10z"/>
<path d="M8276 5994 c-9 -24 -8 -29 15 -55 21 -24 21 -24 15 -1 -5 13 -3 22 3
22 6 0 11 7 11 15 0 8 -4 15 -10 15 -5 0 -10 -7 -10 -15 0 -8 -5 -15 -11 -15
-7 0 -9 10 -5 25 7 28 2 34 -8 9z"/>
<path d="M8300 5530 c0 -5 5 -10 10 -10 6 0 10 5 10 10 0 6 -4 10 -10 10 -5 0
-10 -4 -10 -10z"/>
<path d="M8216 5344 c-20 -19 -20 -25 -2 -18 8 3 17 12 20 20 7 18 1 18 -18
-2z"/>
<path d="M8194 5189 c0 -10 4 -19 8 -19 4 0 8 6 8 14 0 8 -4 17 -8 20 -4 2 -8
-4 -8 -15z"/>
<path d="M8080 4830 c0 -5 5 -10 10 -10 6 0 10 5 10 10 0 6 -4 10 -10 10 -5 0
-10 -4 -10 -10z"/>
<path d="M7870 4430 c0 -5 5 -10 11 -10 5 0 7 5 4 10 -3 6 -8 10 -11 10 -2 0
-4 -4 -4 -10z"/>
<path d="M7805 4320 c3 -5 11 -10 16 -10 6 0 7 5 4 10 -3 6 -11 10 -16 10 -6
0 -7 -4 -4 -10z"/>
<path d="M2450 7323 c0 -6 6 -14 13 -17 10 -5 10 -7 0 -12 -7 -3 -13 -11 -13
-17 0 -6 8 -4 17 6 16 16 16 18 0 34 -9 10 -17 12 -17 6z"/>
<path d="M2360 7234 c0 -10 31 -36 37 -31 3 3 -2 13 -10 22 -16 15 -27 19 -27
9z"/>
<path d="M2270 7020 c0 -5 5 -10 10 -10 6 0 10 5 10 10 0 6 -4 10 -10 10 -5 0
-10 -4 -10 -10z"/>
<path d="M2210 6870 c20 -13 33 -13 25 0 -3 6 -14 10 -23 10 -15 0 -15 -2 -2
-10z"/>
<path d="M2230 6775 c0 -5 5 -17 10 -25 5 -8 10 -10 10 -5 0 6 -5 17 -10 25
-5 8 -10 11 -10 5z"/>
<path d="M2170 6695 c-7 -9 -8 -15 -2 -15 5 0 12 7 16 15 3 8 4 15 2 15 -2 0
-9 -7 -16 -15z"/>
<path d="M2100 6614 c0 -10 31 -36 37 -31 3 3 -2 13 -10 22 -16 15 -27 19 -27
9z"/>
<path d="M2341 6604 c0 -11 3 -14 6 -6 3 7 2 16 -1 19 -3 4 -6 -2 -5 -13z"/>
<path d="M2322 6510 c0 -19 2 -27 5 -17 2 9 2 25 0 35 -3 9 -5 1 -5 -18z"/>
<path d="M2145 6520 c-3 -5 -1 -10 4 -10 6 0 11 5 11 10 0 6 -2 10 -4 10 -3 0
-8 -4 -11 -10z"/>
<path d="M2100 6466 c0 -2 7 -7 16 -10 8 -3 12 -2 9 4 -6 10 -25 14 -25 6z"/>
<path d="M2060 6411 c0 -14 29 -21 36 -9 4 7 3 8 -4 4 -7 -4 -12 -2 -12 3 0 6
-4 11 -10 11 -5 0 -10 -4 -10 -9z"/>
<path d="M2020 6171 c0 -5 7 -12 16 -15 24 -9 27 -7 10 9 -17 17 -26 19 -26 6z"/>
<path d="M2007 6113 c-11 -10 -8 -25 3 -18 5 3 20 1 32 -6 23 -12 23 -12 4 10
-20 22 -28 25 -39 14z"/>
<path d="M1980 5849 c0 -5 5 -7 10 -4 6 3 10 8 10 11 0 2 -4 4 -10 4 -5 0 -10
-5 -10 -11z"/>
<path d="M2010 5825 c7 -8 17 -15 22 -15 6 0 5 7 -2 15 -7 8 -17 15 -22 15 -6
0 -5 -7 2 -15z"/>
<path d="M2005 5590 c-3 -5 -2 -10 4 -10 5 0 13 5 16 10 3 6 2 10 -4 10 -5 0
-13 -4 -16 -10z"/>
<path d="M2084 5161 c4 -6 16 -16 28 -22 15 -8 18 -8 14 0 -4 6 -16 16 -28 22
-15 8 -18 8 -14 0z"/>
<path d="M2120 5116 c0 -2 8 -10 18 -17 15 -13 16 -12 3 4 -13 16 -21 21 -21
13z"/>
<path d="M2180 4966 c0 -2 7 -7 16 -10 8 -3 12 -2 9 4 -6 10 -25 14 -25 6z"/>
<path d="M2283 4725 c-7 -7 -18 -15 -25 -18 -9 -4 -6 -12 11 -27 29 -25 41
-18 16 10 -25 27 -7 25 24 -2 18 -17 21 -18 11 -4 -12 15 -12 20 -2 23 6 3 12
10 12 16 0 5 -3 7 -7 4 -3 -4 -11 -3 -17 2 -7 6 -16 4 -23 -4z"/>
<path d="M2340 4660 c0 -5 5 -10 11 -10 5 0 7 5 4 10 -3 6 -8 10 -11 10 -2 0
-4 -4 -4 -10z"/>
<path d="M2331 4604 c-7 -8 -10 -18 -6 -22 3 -3 10 -1 14 6 5 8 15 10 27 5 18
-6 18 -6 2 10 -20 20 -19 20 -37 1z"/>
<path d="M2390 4545 c-7 -9 -10 -18 -7 -21 3 -3 10 4 17 15 13 25 8 27 -10 6z"/>
<path d="M2448 4511 c20 -33 20 -61 0 -61 -6 0 -8 6 -5 13 7 18 -12 47 -19 30
-3 -7 -13 -9 -22 -6 -9 3 -4 -4 11 -17 22 -17 26 -25 15 -31 -11 -8 -11 -11 1
-18 8 -5 10 -14 6 -22 -5 -8 1 -5 14 5 12 11 20 25 17 31 -2 7 0 18 5 26 7 12
9 12 9 0 0 -8 2 -12 5 -9 7 7 -22 63 -41 79 -12 10 -11 4 4 -20z m12 -81 c0
-5 -4 -10 -10 -10 -5 0 -10 5 -10 10 0 6 5 10 10 10 6 0 10 -4 10 -10z"/>
<path d="M7390 6610 c-34 -34 -21 -79 31 -106 28 -14 33 -14 55 1 33 21 36 75
7 108 -21 23 -68 22 -93 -3z"/>
<path d="M2885 6595 c-28 -27 -31 -51 -12 -77 22 -28 60 -32 90 -8 32 26 34
48 6 84 -26 33 -53 33 -84 1z"/>
<path d="M2641 5915 c-41 -54 -17 -115 46 -115 39 0 63 28 63 72 0 40 -13 55
-57 64 -25 5 -34 1 -52 -21z"/>
<path d="M7653 5940 c-49 -20 -57 -94 -12 -119 23 -13 30 -12 65 5 28 14 40
26 42 45 6 47 -49 87 -95 69z"/>
<path d="M7391 5294 c-12 -15 -21 -32 -21 -39 0 -46 91 -83 123 -50 26 25 21
70 -9 94 -36 28 -68 26 -93 -5z"/>
<path d="M2876 5298 c-32 -46 -6 -98 49 -98 59 0 83 49 49 98 -10 15 -25 22
-49 22 -24 0 -39 -7 -49 -22z"/>
<path d="M4517 3742 c-35 -38 -5 -112 45 -112 25 0 68 44 68 70 0 50 -79 80
-113 42z"/>
<path d="M5711 3734 c-12 -15 -21 -32 -21 -39 0 -27 41 -65 70 -65 29 0 70 38
70 65 0 27 -41 65 -70 65 -19 0 -36 -9 -49 -26z"/>
<path d="M5128 3613 c-44 -50 -24 -103 38 -103 40 0 64 22 64 60 0 51 -70 80
-102 43z"/>
<path d="M582 3958 c-7 -7 -12 -29 -12 -49 0 -29 5 -39 20 -44 45 -14 99 55
70 90 -15 18 -61 20 -78 3z"/>
<path d="M6820 3591 c0 -5 6 -12 13 -14 9 -4 8 -8 -3 -16 -8 -5 -11 -13 -8
-17 4 -3 14 1 23 10 15 14 15 18 1 31 -17 17 -26 19 -26 6z"/>
<path d="M3450 3551 c0 -5 7 -11 15 -15 8 -3 15 -1 15 3 0 5 -7 11 -15 15 -8
3 -15 1 -15 -3z"/>
<path d="M3497 3514 c6 -15 23 -19 23 -5 0 5 -7 11 -14 14 -10 4 -13 1 -9 -9z"/>
<path d="M6637 3406 c-4 -10 -1 -13 9 -9 15 6 19 23 5 23 -5 0 -11 -7 -14 -14z"/>
<path d="M3762 3353 c-10 -4 -9 -9 4 -24 9 -11 14 -22 11 -26 -4 -3 1 -12 11
-19 20 -16 36 -18 27 -5 -3 5 -1 12 5 16 5 3 10 11 10 16 0 6 -7 3 -16 -5 -20
-20 -28 -20 -20 -1 3 9 -1 18 -10 22 -8 3 -13 12 -10 19 3 8 4 14 3 13 -1 0
-8 -3 -15 -6z"/>
<path d="M3956 3256 c3 -8 12 -17 20 -20 12 -4 12 -2 4 14 -12 23 -32 27 -24
6z"/>
<path d="M4030 3221 c0 -10 19 -25 25 -20 1 2 -3 10 -11 17 -8 7 -14 8 -14 3z"/>
<path d="M4180 3160 c-9 -6 -10 -10 -3 -10 6 0 15 5 18 10 8 12 4 12 -15 0z"/>
<path d="M6058 3135 c17 -14 33 -25 37 -25 5 0 -4 11 -19 25 -15 14 -32 25
-37 25 -6 0 3 -11 19 -25z"/>
<path d="M4160 3130 c0 -5 5 -10 11 -10 5 0 7 5 4 10 -3 6 -8 10 -11 10 -2 0
-4 -4 -4 -10z"/>
<path d="M5957 3104 c3 -7 9 -14 14 -14 14 0 10 17 -5 23 -10 4 -13 1 -9 -9z"/>
<path d="M4611 3054 c0 -11 3 -14 6 -6 3 7 2 16 -1 19 -3 4 -6 -2 -5 -13z"/>
<path d="M4871 3061 c-9 -6 -10 -11 -2 -15 6 -4 11 -2 11 3 0 15 37 14 43 -1
2 -7 8 -10 12 -6 22 21 -34 38 -64 19z"/>
<path d="M5100 3056 c0 -2 7 -7 16 -10 8 -3 12 -2 9 4 -6 10 -25 14 -25 6z"/>
<path d="M5328 3053 c6 -2 18 -2 25 0 6 3 1 5 -13 5 -14 0 -19 -2 -12 -5z"/>
<path d="M5526 3048 c5 -8 2 -9 -10 -5 -10 4 -15 3 -11 -3 3 -6 3 -10 -2 -10
-4 0 -14 -4 -22 -9 -12 -8 -12 -12 2 -26 10 -9 17 -12 17 -6 0 6 4 11 10 11 5
0 7 -8 3 -17 -5 -14 -3 -16 7 -6 15 14 22 83 9 83 -6 0 -7 -5 -3 -12z m4 -39
c0 -6 -4 -7 -10 -4 -5 3 -10 11 -10 16 0 6 5 7 10 4 6 -3 10 -11 10 -16z"/>
<path d="M4545 3040 c3 -5 8 -10 11 -10 2 0 4 5 4 10 0 6 -5 10 -11 10 -5 0
-7 -4 -4 -10z"/>
<path d="M4713 3035 c-4 -5 -3 -7 2 -3 4 4 16 3 27 -3 13 -7 17 -17 13 -32 -5
-18 -4 -19 4 -7 10 13 12 13 20 0 6 -8 13 -11 17 -7 4 4 -4 16 -17 28 -13 12
-23 24 -22 28 3 11 -38 8 -44 -4z"/>
<path d="M4580 3032 c0 -5 7 -9 15 -9 8 0 12 4 9 9 -3 4 -9 8 -15 8 -5 0 -9
-4 -9 -8z"/>
<path d="M5173 3028 c-20 -26 -26 -41 -15 -34 12 7 36 46 29 46 -3 0 -9 -6
-14 -12z"/>
<path d="M5344 3025 c-10 -8 -14 -15 -8 -15 6 0 17 7 24 15 16 19 9 19 -16 0z"/>
<path d="M5550 3031 c0 -5 7 -12 16 -15 14 -5 15 -4 4 9 -14 17 -20 19 -20 6z"/>
<path d="M4620 3021 c0 -6 4 -13 10 -16 6 -3 7 1 4 9 -7 18 -14 21 -14 7z"/>
<path d="M4690 3020 c0 -5 5 -10 11 -10 5 0 7 5 4 10 -3 6 -8 10 -11 10 -2 0
-4 -4 -4 -10z"/>
<path d="M5085 3020 c3 -5 8 -10 11 -10 2 0 4 5 4 10 0 6 -5 10 -11 10 -5 0
-7 -4 -4 -10z"/>
<path d="M4830 3009 c0 -5 5 -7 10 -4 6 3 10 8 10 11 0 2 -4 4 -10 4 -5 0 -10
-5 -10 -11z"/>
<path d="M5184 3003 c-4 -10 -8 -22 -9 -28 0 -5 -4 -16 -8 -22 -5 -8 -4 -13 2
-13 6 0 11 5 11 11 0 6 8 8 18 5 14 -5 14 -4 -2 9 -19 14 -19 15 -1 35 10 11
13 20 8 20 -6 0 -14 -8 -19 -17z"/>
<path d="M4850 2989 c0 -5 5 -7 10 -4 6 3 10 8 10 11 0 2 -4 4 -10 4 -5 0 -10
-5 -10 -11z"/>
<path d="M5040 2974 c0 -8 5 -12 10 -9 6 4 8 11 5 16 -9 14 -15 11 -15 -7z"/>
<path d="M5210 2976 c7 -7 13 -7 20 0 6 6 3 10 -10 10 -13 0 -16 -4 -10 -10z"/>
<path d="M5733 2978 c-16 -20 -26 -78 -14 -78 6 0 11 9 11 21 0 11 5 29 11 41
12 23 7 34 -8 16z"/>
<path d="M5316 2965 c4 -8 11 -15 16 -15 6 0 5 6 -2 15 -7 8 -14 15 -16 15 -2
0 -1 -7 2 -15z"/>
<path d="M5285 2950 c-3 -5 -2 -10 4 -10 5 0 13 5 16 10 3 6 2 10 -4 10 -5 0
-13 -4 -16 -10z"/>
<path d="M5723 2723 l-143 -4 0 -259 c0 -327 -16 -302 183 -298 l142 3 3 205
c3 243 -6 355 -28 355 -8 1 -79 -1 -157 -2z"/>
<path d="M9376 3408 c-37 -53 -4 -116 53 -103 33 7 61 38 61 66 0 23 -47 59
-76 59 -12 0 -30 -10 -38 -22z"/>
<path d="M4180 3070 c0 -5 5 -10 10 -10 6 0 10 5 10 10 0 6 -4 10 -10 10 -5 0
-10 -4 -10 -10z"/>
<path d="M1472 2410 c17 -35 24 -68 28 -150 l5 -105 173 0 c143 0 174 3 182
15 13 20 13 146 0 171 -10 18 -23 19 -169 19 l-159 0 -41 48 -42 47 23 -45z"/>
<path d="M5010 1656 c0 -28 11 -34 52 -28 36 5 36 18 -2 37 -40 21 -50 19 -50
-9z"/>
<path d="M3720 1594 c0 -28 25 -32 56 -10 20 16 18 18 -33 29 -19 4 -23 1 -23
-19z"/>
</g>
</svg>
